<?xml version="1.0" encoding="utf-8"?>
<!-- Generator: Adobe Illustrator 26.5.2, SVG Export Plug-In . SVG Version: 6.00 Build 0)  -->
<svg version="1.1" xmlns="http://www.w3.org/2000/svg" xmlns:xlink="http://www.w3.org/1999/xlink" x="0px" y="0px"
	 viewBox="0 0 841.89 595.28" style="enable-background:new 0 0 841.89 595.28;" xml:space="preserve">
<style type="text/css">
	.st0{fill:#19517E;}
	.st1{fill:#0088A1;}
	.st2{fill:#2D4854;}
	.st3{fill:#007CA8;}
	.st4{fill:#0094BA;}
	.st5{fill:#004866;}
	.st6{fill:#86B7AE;}
	.st7{fill:#EA903A;}
	.st8{fill:#F5D141;}
	.st9{fill:#97B5A5;}
	.st10{fill:#9BB151;}
	.st11{fill:#66B69E;}
</style>
<g id="hire_x5F_0">
	<g>
		<path class="st0" d="M308.2,185.74c3.84,3.08,7.59,6.26,11.47,9.29c4.05,3.16,8.25,5.83,12.73,8.34
			c21.05,11.8,42.94,22.53,66.24,29.09c10.85,3.05,22.05,5.04,33.16,6.88c11.81,1.95,23.67,3.52,35.55,4.94
			c11.65,1.39,23.32,2.62,34.98,3.89c11.66,1.26,23.31,2.93,35.04,3.22c18.89,0.47,37.69-1.68,56.53-2.73
			c-2.59-0.18-5.18-0.38-7.77-0.56c0.19-1.12,0.39-2.24,0.58-3.36c6.07-0.3,12.19-0.16,18.18-1.01c5.94-0.84,8.88-4.76,4.13-9.64
			c-4.92-5.06-10.76-9.58-16.96-12.94c-7.75-4.21-16.59-6.39-24.37-10.56c-10.43-5.59-20.27-12.28-30.43-18.39
			c-1.18-0.71-2.91-0.48-4.17-1.11c-2.99-1.51-5.95-3.14-8.75-4.97c-2.62-1.71-4.76-4.59-7.59-5.5c-8.86-2.87-17.97-4.98-26.94-7.52
			c-6.49-1.83-13.08-3.44-19.33-5.9c-7.86-3.08-15.12-8.07-23.17-10.18c-13.92-3.66-28.22-5.95-42.43-8.44
			c-16.44-2.89-32.95-5.77-49.73-3.17c-12.97,2.01-26.08,3.22-35.37,14.89c-6.91,8.68-15.2,13.78-26.56,15.02
			C298.6,178.15,303.55,182.01,308.2,185.74z"/>
		<path class="st0" d="M613.14,345.24c-3.29-2.62-7.26-4.36-11.02-6.56c0.22-0.37,0.44-0.71,0.66-1.05
			c-17.91-0.09-35.73-1.76-53.57-3.13c-17.11-1.31-34.31-2.25-51.44-0.71c-18.59,1.67-36.54,6.49-53.52,14.22
			c-15.33,6.98-29.51,16.43-42.09,27.61c-8.05,7.15-15.47,15.03-22.09,23.53c7.47-0.89,14.92-1.95,22.13-3.85
			c8.15-2.16,13.88,0.46,18.4,6.15c14.82,18.66,36.65,20.91,57.61,25.29c1.57,0.33,3.5-0.24,5.08-0.86
			c10.62-4.15,21.23-8.35,31.76-12.73c2.36-0.98,4.39-2.74,6.62-4.06c7.75-4.62,15.03-10.63,23.39-13.46
			c12.01-4.07,21.24-12.75,33.32-16.99c12.06-4.24,22.37-13.34,33.59-20.07C618.3,354.74,619.06,349.95,613.14,345.24z"/>
		<path class="st0" d="M359.17,404.55c-6.65-4.15-13.4-8.12-20.32-11.79c-10.85-5.75-22.11-10.81-33.81-14.55
			c-11.25-3.6-22.92-5.96-34.74-6.5c-12.01-0.55-24.07,0.83-35.65,4.08c-6.89,1.93-13.56,4.52-20.01,7.59
			c16.79,5.75,33.62,11.39,50.34,17.33c3.14,1.12,6.79,3.91,8,6.83c4.93,11.91,13.38,18.75,25.91,21.16
			c8.37,1.61,16.38,3.85,22.05,11.33c1.66,2.19,5.54,2.91,8.55,3.8c5.85,1.72,11.8,3.11,17.72,4.59c3.78,0.94,7.58,1.8,13.08,3.1
			c-3.37-7.62-6.4-13.25-8.4-19.22C347.87,420.24,350.95,410.14,359.17,404.55z"/>
	</g>
</g>
<g id="hire_x5F_1">
	<g>
		<path class="st1" d="M308.2,185.74c3.84,3.08,7.59,6.26,11.47,9.29c4.05,3.16,8.25,5.83,12.73,8.34
			c21.05,11.8,42.94,22.53,66.24,29.09c10.85,3.05,22.05,5.04,33.16,6.88c11.81,1.95,23.67,3.52,35.55,4.94
			c11.65,1.39,23.32,2.62,34.98,3.89c11.66,1.26,23.31,2.93,35.04,3.22c18.89,0.47,37.69-1.68,56.53-2.73
			c-2.59-0.18-5.18-0.38-7.77-0.56c0.19-1.12,0.39-2.24,0.58-3.36c6.07-0.3,12.19-0.16,18.18-1.01c5.94-0.84,8.88-4.76,4.13-9.64
			c-4.92-5.06-10.76-9.58-16.96-12.94c-7.75-4.21-16.59-6.39-24.37-10.56c-10.43-5.59-20.27-12.28-30.43-18.39
			c-1.18-0.71-2.91-0.48-4.17-1.11c-2.99-1.51-5.95-3.14-8.75-4.97c-2.62-1.71-4.76-4.59-7.59-5.5c-8.86-2.87-17.97-4.98-26.94-7.52
			c-6.49-1.83-13.08-3.44-19.33-5.9c-7.86-3.08-15.12-8.07-23.17-10.18c-13.92-3.66-28.22-5.95-42.43-8.44
			c-16.44-2.89-32.95-5.77-49.73-3.17c-12.97,2.01-26.08,3.22-35.37,14.89c-6.91,8.68-15.2,13.78-26.56,15.02
			C298.6,178.15,303.55,182.01,308.2,185.74z"/>
		<path class="st1" d="M613.14,345.24c-3.29-2.62-7.26-4.36-11.02-6.56c0.22-0.37,0.44-0.71,0.66-1.05
			c-17.91-0.09-35.73-1.76-53.57-3.13c-17.11-1.31-34.31-2.25-51.44-0.71c-18.59,1.67-36.54,6.49-53.52,14.22
			c-15.33,6.98-29.51,16.43-42.09,27.61c-8.05,7.15-15.47,15.03-22.09,23.53c7.47-0.89,14.92-1.95,22.13-3.85
			c8.15-2.16,13.88,0.46,18.4,6.15c14.82,18.66,36.65,20.91,57.61,25.29c1.57,0.33,3.5-0.24,5.08-0.86
			c10.62-4.15,21.23-8.35,31.76-12.73c2.36-0.98,4.39-2.74,6.62-4.06c7.75-4.62,15.03-10.63,23.39-13.46
			c12.01-4.07,21.24-12.75,33.32-16.99c12.06-4.24,22.37-13.34,33.59-20.07C618.3,354.74,619.06,349.95,613.14,345.24z"/>
		<path class="st1" d="M359.17,404.55c-6.65-4.15-13.4-8.12-20.32-11.79c-10.85-5.75-22.11-10.81-33.81-14.55
			c-11.25-3.6-22.92-5.96-34.74-6.5c-12.01-0.55-24.07,0.83-35.65,4.08c-6.89,1.93-13.56,4.52-20.01,7.59
			c16.79,5.75,33.62,11.39,50.34,17.33c3.14,1.12,6.79,3.91,8,6.83c4.93,11.91,13.38,18.75,25.91,21.16
			c8.37,1.61,16.38,3.85,22.05,11.33c1.66,2.19,5.54,2.91,8.55,3.8c5.85,1.72,11.8,3.11,17.72,4.59c3.78,0.94,7.58,1.8,13.08,3.1
			c-3.37-7.62-6.4-13.25-8.4-19.22C347.87,420.24,350.95,410.14,359.17,404.55z"/>
	</g>
</g>
<g id="hire_x5F_2">
	<g>
		<path class="st2" d="M308.2,185.74c3.84,3.08,7.59,6.26,11.47,9.29c4.05,3.16,8.25,5.83,12.73,8.34
			c21.05,11.8,42.94,22.53,66.24,29.09c10.85,3.05,22.05,5.04,33.16,6.88c11.81,1.95,23.67,3.52,35.55,4.94
			c11.65,1.39,23.32,2.62,34.98,3.89c11.66,1.26,23.31,2.93,35.04,3.22c18.89,0.47,37.69-1.68,56.53-2.73
			c-2.59-0.18-5.18-0.38-7.77-0.56c0.19-1.12,0.39-2.24,0.58-3.36c6.07-0.3,12.19-0.16,18.18-1.01c5.94-0.84,8.88-4.76,4.13-9.64
			c-4.92-5.06-10.76-9.58-16.96-12.94c-7.75-4.21-16.59-6.39-24.37-10.56c-10.43-5.59-20.27-12.28-30.43-18.39
			c-1.18-0.71-2.91-0.48-4.17-1.11c-2.99-1.51-5.95-3.14-8.75-4.97c-2.62-1.71-4.76-4.59-7.59-5.5c-8.86-2.87-17.97-4.98-26.94-7.52
			c-6.49-1.83-13.08-3.44-19.33-5.9c-7.86-3.08-15.12-8.07-23.17-10.18c-13.92-3.66-28.22-5.95-42.43-8.44
			c-16.44-2.89-32.95-5.77-49.73-3.17c-12.97,2.01-26.08,3.22-35.37,14.89c-6.91,8.68-15.2,13.78-26.56,15.02
			C298.6,178.15,303.55,182.01,308.2,185.74z"/>
		<path class="st2" d="M613.14,345.24c-3.29-2.62-7.26-4.36-11.02-6.56c0.22-0.37,0.44-0.71,0.66-1.05
			c-17.91-0.09-35.73-1.76-53.57-3.13c-17.11-1.31-34.31-2.25-51.44-0.71c-18.59,1.67-36.54,6.49-53.52,14.22
			c-15.33,6.98-29.51,16.43-42.09,27.61c-8.05,7.15-15.47,15.03-22.09,23.53c7.47-0.89,14.92-1.95,22.13-3.85
			c8.15-2.16,13.88,0.46,18.4,6.15c14.82,18.66,36.65,20.91,57.61,25.29c1.57,0.33,3.5-0.24,5.08-0.86
			c10.62-4.15,21.23-8.35,31.76-12.73c2.36-0.98,4.39-2.74,6.62-4.06c7.75-4.62,15.03-10.63,23.39-13.46
			c12.01-4.07,21.24-12.75,33.32-16.99c12.06-4.24,22.37-13.34,33.59-20.07C618.3,354.74,619.06,349.95,613.14,345.24z"/>
		<path class="st2" d="M359.17,404.55c-6.65-4.15-13.4-8.12-20.32-11.79c-10.85-5.75-22.11-10.81-33.81-14.55
			c-11.25-3.6-22.92-5.96-34.74-6.5c-12.01-0.55-24.07,0.83-35.65,4.08c-6.89,1.93-13.56,4.52-20.01,7.59
			c16.79,5.75,33.62,11.39,50.34,17.33c3.14,1.12,6.79,3.91,8,6.83c4.93,11.91,13.38,18.75,25.91,21.16
			c8.37,1.61,16.38,3.85,22.05,11.33c1.66,2.19,5.54,2.91,8.55,3.8c5.85,1.72,11.8,3.11,17.72,4.59c3.78,0.94,7.58,1.8,13.08,3.1
			c-3.37-7.62-6.4-13.25-8.4-19.22C347.87,420.24,350.95,410.14,359.17,404.55z"/>
	</g>
</g>
<g id="body_x5F_0">
	<path class="st3" d="M713.53,321.86c0.34-6.7,0.79-13.4,1.34-20.09c1.42-17.43,4.75-34.87-1.34-52.15
		c-0.57-1.63,0.39-4.33,1.49-5.94c7.76-11.34,19.03-11.11,30.62-8.47c6.93,1.58,13.66,4.06,22.99,6.89
		c-2.93-3.24-3.91-4.64-5.18-5.68c-19.25-15.73-41.69-22.78-65.56-17.03c-16.7,4.02-32.12,13.41-48.1,20.42
		c-14.16,6.21-27.09,17.29-44.4,11.02c-1.18-0.43-2.82,0.6-4.23,0.54c-4.54-0.2-9.07-0.6-13.6-0.92c0.11-0.66,0.23-1.32,0.34-1.98
		c-7.41-1.34-14.59-3.94-21.64-6.57c-4.73-1.77-9.45-3.61-14.28-5.1c-45.17-13.87-87-35.3-133.2-46.38
		c-89.8-21.54-181.41-12.01-272.65-9.24c-14.13,0.43-28.44,2.62-39.81,11.54c-5.48,4.29-11.76,11.92-11.75,18.03
		c0.04,18.3-5.27,33.79-16.63,47.7c-3.83,4.69-4.47,9.45-0.96,11.43c-0.73,5.66-2.68,9.99-1.43,12.98
		c3.79,9.09,7.65,18.56,13.58,26.27c20.35,26.46,46.01,46.86,77.21,58.82c50.88,19.49,103.12,39.16,158.24,40.65
		c55.6,1.5,114.44-14.36,167.33-30.09c21.88-6.51,43.5-13.88,64.78-22.14c10.74-4.17,41.13-9.7,49.02-18.28
		c3.16-3.44,6.99-4.1,11.58-2.24c4.59,1.86,9.15,3.87,13.55,6.14c33.32,17.24,68.94,23.6,106.07,21.88
		c11.11-0.51,22.29-2.45,31.7-9.49c-5.88,0.09-11.62,1.44-17.35,1.43C724.03,355.75,712.27,346.66,713.53,321.86z"/>
	<circle class="st0" cx="149.5" cy="238.7" r="8"/>
</g>
<g id="body_x5F_1">
	<path class="st4" d="M713.53,321.86c0.34-6.7,0.79-13.4,1.34-20.09c1.42-17.43,4.75-34.87-1.34-52.15
		c-0.57-1.63,0.39-4.33,1.49-5.94c7.76-11.34,19.03-11.11,30.62-8.47c6.93,1.58,13.66,4.06,22.99,6.89
		c-2.93-3.24-3.91-4.64-5.18-5.68c-19.25-15.73-41.69-22.78-65.56-17.03c-16.7,4.02-32.12,13.41-48.1,20.42
		c-14.16,6.21-27.09,17.29-44.4,11.02c-1.18-0.43-2.82,0.6-4.23,0.54c-4.54-0.2-9.07-0.6-13.6-0.92c0.11-0.66,0.23-1.32,0.34-1.98
		c-7.41-1.34-14.59-3.94-21.64-6.57c-4.73-1.77-9.45-3.61-14.28-5.1c-45.17-13.87-87-35.3-133.2-46.38
		c-89.8-21.54-181.41-12.01-272.65-9.24c-14.13,0.43-28.44,2.62-39.81,11.54c-5.48,4.29-11.76,11.92-11.75,18.03
		c0.04,18.3-5.27,33.79-16.63,47.7c-3.83,4.69-4.47,9.45-0.96,11.43c-0.73,5.66-2.68,9.99-1.43,12.98
		c3.79,9.09,7.65,18.56,13.58,26.27c20.35,26.46,46.01,46.86,77.21,58.82c50.88,19.49,103.12,39.16,158.24,40.65
		c55.6,1.5,114.44-14.36,167.33-30.09c21.88-6.51,43.5-13.88,64.78-22.14c10.74-4.17,41.13-9.7,49.02-18.28
		c3.16-3.44,6.99-4.1,11.58-2.24c4.59,1.86,9.15,3.87,13.55,6.14c33.32,17.24,68.94,23.6,106.07,21.88
		c11.11-0.51,22.29-2.45,31.7-9.49c-5.88,0.09-11.62,1.44-17.35,1.43C724.03,355.75,712.27,346.66,713.53,321.86z"/>
	<circle class="st0" cx="149.5" cy="238.7" r="8"/>
</g>
<g id="body_x5F_2">
	<path class="st5" d="M713.53,321.86c0.34-6.7,0.79-13.4,1.34-20.09c1.42-17.43,4.75-34.87-1.34-52.15
		c-0.57-1.63,0.39-4.33,1.49-5.94c7.76-11.34,19.03-11.11,30.62-8.47c6.93,1.58,13.66,4.06,22.99,6.89
		c-2.93-3.24-3.91-4.64-5.18-5.68c-19.25-15.73-41.69-22.78-65.56-17.03c-16.7,4.02-32.12,13.41-48.1,20.42
		c-14.16,6.21-27.09,17.29-44.4,11.02c-1.18-0.43-2.82,0.6-4.23,0.54c-4.54-0.2-9.07-0.6-13.6-0.92c0.11-0.66,0.23-1.32,0.34-1.98
		c-7.41-1.34-14.59-3.94-21.64-6.57c-4.73-1.77-9.45-3.61-14.28-5.1c-45.17-13.87-87-35.3-133.2-46.38
		c-89.8-21.54-181.41-12.01-272.65-9.24c-14.13,0.43-28.44,2.62-39.81,11.54c-5.48,4.29-11.76,11.92-11.75,18.03
		c0.04,18.3-5.27,33.79-16.63,47.7c-3.83,4.69-4.47,9.45-0.96,11.43c-0.73,5.66-2.68,9.99-1.43,12.98
		c3.79,9.09,7.65,18.56,13.58,26.27c20.35,26.46,46.01,46.86,77.21,58.82c50.88,19.49,103.12,39.16,158.24,40.65
		c55.6,1.5,114.44-14.36,167.33-30.09c21.88-6.51,43.5-13.88,64.78-22.14c10.74-4.17,41.13-9.7,49.02-18.28
		c3.16-3.44,6.99-4.1,11.58-2.24c4.59,1.86,9.15,3.87,13.55,6.14c33.32,17.24,68.94,23.6,106.07,21.88
		c11.11-0.51,22.29-2.45,31.7-9.49c-5.88,0.09-11.62,1.44-17.35,1.43C724.03,355.75,712.27,346.66,713.53,321.86z"/>
	<circle class="st6" cx="149.5" cy="238.7" r="8"/>
</g>
<g id="dot_x5F_0">
	<g>
		<path class="st7" d="M671.75,262.4c-2.41-1.5-6.14-0.52-8.41-3.29c-1.66-2.03-3.71-4.26-2.98-6.94c0.87-3.2,3.89-2.63,6.55-2.62
			c7.84,0.02,15.69-0.16,23.54-0.28c2.18-0.03,4.28,0.39,4.88,2.71c0.7,2.73-2.28,1.81-3.35,2.86
			C686.46,260.26,679.18,261.14,671.75,262.4z"/>
		<path class="st7" d="M377.18,175.32c-0.15-8.02,5.79-12.93,10.57-17.37c2.25-2.09,9.24,0,13.63,1.51
			c2.55,0.88,0.27,3.51-1.21,4.78c-6.15,5.29-12.37,10.51-18.65,15.65c-0.75,0.62-2.3,1.1-3.04,0.74
			C376.16,179.5,377.2,177.11,377.18,175.32z"/>
		<path class="st7" d="M351.41,174.09c-1-8.53,5.08-13.85,10.18-18.31c3.12-2.73,9.65-0.07,14.35,1.41
			c1.29,0.41-0.48,2.99-1.65,4.28c-5.67,6.26-13.76,9.73-19.1,16.42c-0.53,0.67-2.28,1.02-3.12,0.68
			C349.74,177.62,351.48,175.57,351.41,174.09z"/>
		<path class="st7" d="M308.49,275.58c11.22,1.7,11.28,1.72,6.83,11.79c-1.21,2.74-1.73,5.49-1.83,8.44
			c-0.08,2.54,0.4,5.83-2.68,6.77c-3.46,1.05-2.93-3.79-5.41-4.58C301.54,289.85,301.55,282.24,308.49,275.58z"/>
		<path class="st7" d="M667.96,285.17c-2.54-0.85-6.42-1.81-8-6.21c-1.75-4.89-1.44-8,5.13-6.71c5.91,1.16,11.9,1.95,17.85,2.92
			c2.04,0.33,2.89,1.85,3.11,3.64c0.3,2.36-2,1.28-2.97,2C679.01,283.87,674.23,284.82,667.96,285.17z"/>
		<path class="st7" d="M425.86,185.3c-0.87-6.15,1.2-10.71,5.47-14.37c4.69-4.02,10.77-2.99,14.02,2.22
			c1.29,2.06,1.92,3.45-1.1,4.52c-5.33,1.87-9.51,5.44-13.24,9.62c-1.15,1.29-2.47,2.58-4.51,1.91
			C423.61,188.24,426.27,186.23,425.86,185.3z"/>
		<path class="st7" d="M328.17,170.53c-0.34-6.45,3.51-11,7.85-12.94c3.52-1.58,8.94,0.06,13.15,1.41c2.79,0.89,1.04,3.35-0.67,4.58
			c-5.37,3.87-10.53,8.17-16.33,11.24C327.09,177.51,328.81,172.28,328.17,170.53z"/>
		<path class="st7" d="M466.63,192.54c-0.44-7.43,2.86-12.03,8.42-14.85c3.95-2.01,8.49-1.47,10.15,2.91
			c1.35,3.56,1.5,8.23-4.9,8.44c-3.54,0.12-5,3.73-7.61,5.49c-1.42,0.95-2.69,2.43-4.63,1.71
			C465.8,195.4,466.71,193.35,466.63,192.54z"/>
		<path class="st7" d="M490.8,197.73c0.29-5.98,3.57-10.31,9.2-10.78c4.29-0.36,8.94,4.49,6.72,7.86
			c-2.64,4.01-8.46,6.56-13.42,8.16C490.02,204.02,491.54,199.67,490.8,197.73z"/>
		<path class="st7" d="M448.69,185.23c0.98-4.99,3.05-9.24,8.45-9.65c4.4-0.34,8.44,3.51,6.93,6.88
			c-1.99,4.46-6.39,9.09-11.41,10.11C449.34,193.24,449.63,187.97,448.69,185.23z"/>
		<path class="st7" d="M532.72,204.46c-4.51,2.48-10.88,1.52-13.65,7.59c-1.02,2.23-2.28-0.63-2.71-1.32
			c-2.65-4.25-3.51-8.66,0.79-12.42c3.91-3.42,7.95-2.81,11.74,0.38C530.64,200.17,532.6,201.55,532.72,204.46z"/>
		<path class="st7" d="M413.98,166.41c2.05,0.46,5.04-1.3,6.08,1.69c0.84,2.4-1.87,3.34-3.14,4.79c-1.53,1.75-3.25,3.35-5.02,4.87
			c-2.33,2.01-3.97,5.71-7.8,4.53c-2.14-0.66-1.84-3.48-2.08-5.35c-0.48-3.74,0.94-6.92,4.36-8.82
			C408.71,166.86,411.18,165.88,413.98,166.41z"/>
		<path class="st7" d="M671.58,330.13c-7.91-0.22-8.4-6.05-8.99-11.59c-0.19-1.8-0.78-4.37,2.4-4.58
			c2.39-0.16,13.76,10.59,13.39,12.79C677.68,331.03,673.82,329.09,671.58,330.13z"/>
		<path class="st7" d="M304.7,308.56c0.88,3.3,5.78,7.3,2.05,9.54c-3.17,1.9-8.39,5.88-13.02,0.97
			C293.3,311.31,296.61,307.44,304.7,308.56z"/>
		<path class="st7" d="M674.95,293.34c-3.28,5.41,9.15,8.41,0.06,13.78c-3.47,2.05-6.63,1.2-7.96-2.05
			C664.56,299.01,668.91,296.3,674.95,293.34z"/>
		<path class="st7" d="M531.83,214.45c5.88-1,9.47-7.19,14.72-2.91c1.52,1.24,3.64,5.69,0.11,7.66
			C541.01,222.36,537.01,218.41,531.83,214.45z"/>
		<path class="st7" d="M402.78,215.95c-1.86,2.88-1.86,2.88-6.02-1.87c-0.22-2.31-0.39-4.64-0.69-6.94
			c-0.38-2.94,1.33-4.2,3.76-4.98c1.45-0.46,2.91-0.73,4,0.58c1.78,2.13,0.21,3.78-1.04,5.36
			C400.71,210.74,400.61,213.33,402.78,215.95z"/>
		<path class="st7" d="M609.64,274.57c0.15,6.53,8.93,8.76,2.9,15c-1.57,1.63-3.66,2.68-5.22,0.67
			C603.52,285.33,607.25,281.06,609.64,274.57z"/>
		<path class="st7" d="M483.75,235.01c-5.36,3.03-2.42-2.64-3.87-3.7c0.17-2.61,0.23-5.19,1.77-7.55c1.91-2.93,4.67-4.21,7.33-2.18
			c3.69,2.81-0.15,4.36-1.91,5.84C484.65,229.46,483.37,231.83,483.75,235.01z"/>
		<path class="st7" d="M520.05,287.6c-6.53-7.55-5.51-12.56,3.07-15.08C527.04,278.55,519.22,282.2,520.05,287.6z"/>
		<path class="st7" d="M500.93,241.77c-0.99-0.44-1.98-0.89-2.97-1.33c-0.75-3.89-3.09-7.81-0.18-11.68
			c1.24-1.65,2.93-3.1,5.23-2.09c2.93,1.29,1.4,3.27,0.49,5.03C501.86,234.87,501.23,238.28,500.93,241.77z"/>
		<path class="st7" d="M426.36,219.01c-1.23,1.08-2.53,3.12-3.67,3.04c-2.57-0.19-1.81-3.02-2.45-4.76c0.22-1.42,0.31-2.89,0.7-4.26
			c0.93-3.23,3.26-5.36,6.41-3.91c3.28,1.51-0.18,3.83-0.34,5.81C426.89,216.29,426.58,217.64,426.36,219.01z"/>
		<path class="st7" d="M586.86,267.72c-2.03-2.58-1.7-5.48-1.08-8.12c0.57-2.43,1.57-5.18,4.78-5.29c1.29-0.04,3.19,0.37,3.8,1.26
			c1.95,2.86-1.47,3.79-2.63,5.37C590.12,263.12,590.04,266.44,586.86,267.72z"/>
		<path class="st7" d="M544.63,279.25c-3.23,1.49-2.76,6.85-6.69,7.57c-1.69,0.31-3.58-2.97-3.31-5.3c0.37-3.2,1.62-6.25,5.72-6.37
			C542.73,275.09,544.16,276.22,544.63,279.25z"/>
		<path class="st7" d="M635.37,269.51c-4.83-2.51-6.6-6.01-4.5-10.72c0.73-1.64,2.53-3.21,4.17-1.92
			C639.91,260.66,634.48,265.22,635.37,269.51z"/>
		<path class="st7" d="M445.62,220.81c-1.03,2.24-2.06,4.48-3.28,7.15c-3.24-2.27-3.14-5.44-3.84-8.22
			c1.84-2.58,2.44-7.46,7.09-5.55C449.21,215.68,445.78,218.55,445.62,220.81z"/>
		<path class="st7" d="M527.59,263.1c-0.05-2.37-0.09-4.74-0.14-7.12c1.48-2.95,3.95-4.73,6.89-2.93c3,1.84,0.05,5.13-0.91,5.62
			C531.15,259.85,537.04,272.4,527.59,263.1z"/>
		<path class="st7" d="M467.28,225.96c-1.55,0.96-2.2,3.57-4.43,3.07c-2.07-0.47-1.33-2.65-1.62-4.15c0.34-0.77,0.69-1.54,1.02-2.32
			c1.59-3.75,4.82-5.89,7.87-3.16C473.3,222.24,467.98,223.57,467.28,225.96z"/>
		<path class="st7" d="M590.01,290.32c0-6.16,0-10.6,0-15.01C597,282.66,597,282.66,590.01,290.32z"/>
		<path class="st7" d="M519.07,323.11c0.1-2.87,1.88-4.91,3.45-7.05c7.32-1.12,4.5,3.37,3.72,6.73c-1.05,1.47-0.12,4.53-2.57,4.58
			C521.38,327.4,520.4,324.79,519.07,323.11z"/>
		<path class="st7" d="M522.5,307.47c-0.07-3.11-0.26-6.24,1.8-8.92c2.2-0.41,6.07-1.3,6,0.75c-0.13,3.66-1.97,7.53-4.02,10.73
			C525.51,311.24,523.63,308.67,522.5,307.47z"/>
		<path class="st7" d="M571.73,290.36c-3.04-5.04-3.33-8.95,0.27-12.51c1.61-1.59,5.13-1.49,5.4-0.05
			C578.31,282.68,573.87,285.52,571.73,290.36z"/>
		<path class="st7" d="M547.78,261c-3.04-5.76-3.99-9.47-0.05-12.76c1.62-1.35,4.12-0.9,4.55,0.63
			C553.48,253.17,549.83,255.87,547.78,261z"/>
		<path class="st7" d="M583.03,306.7c-2.11,1.07-4.02,2.79-6.68,2.12c-0.06-4.97,1.33-9.41,4.81-13.6
			C582.7,299.19,584.65,302.63,583.03,306.7z"/>
		<path class="st7" d="M636.25,306.75c-4.43-4.99-6.36-8.12-2.6-11.99c1.26-1.3,3.83-2.38,4.58-1.2
			C641.08,298.07,635.95,300.84,636.25,306.75z"/>
		<path class="st7" d="M522.44,242.81c-4.32-4.62-4.54-7.94-1.18-11.09c1.31-1.23,3.79-1.97,4.64-0.42
			C528.39,235.76,523.05,237.71,522.44,242.81z"/>
		<path class="st7" d="M550.29,304.52c-4.28-5.18-4.86-8.62-1.97-12c1.5-1.75,4.35-2.04,5.33-0.16
			C555.99,296.83,550.36,298.79,550.29,304.52z"/>
		<path class="st7" d="M570.75,268.15c-3.82-4.96-5.69-8.03-2.64-11.63c1.01-1.19,3.06-2.95,4.33-1.33
			C575.64,259.25,571.12,262.36,570.75,268.15z"/>
		<path class="st7" d="M558.84,283.93c-4.45-3.42-4.42-7.05-1.78-10.65c1.34-1.83,4.14-2.35,5.32-0.41
			C565.44,277.87,558.05,279.33,558.84,283.93z"/>
		<path class="st7" d="M621.39,270.63c-4.79-3.58-5.89-6.44-3.24-9.91c0.99-1.29,2.98-1.47,3.93-0.53
			C625.49,263.59,620.83,266.15,621.39,270.63z"/>
		<path class="st7" d="M657.46,333.76c-4.14,3.29-7.4,3.37-10.39-0.13c-0.79-0.92-1.37-2.36-0.26-2.96
			C650.91,328.46,653.58,331.71,657.46,333.76z"/>
		<path class="st7" d="M606.45,259.46c1.92,0.12,3.82,0.24,3.2,2.18c-0.74,2.34-0.95,5.47-3.63,6.44c-2.18,0.79-2.76-1.45-2.99-3.11
			C602.61,262,603.79,260,606.45,259.46z"/>
		<path class="st7" d="M516.12,252.78c-1.77,0.88-0.47,5.01-3.41,4.04c-3.42-1.13-2.57-4.7-2.66-7.52
			C512.75,249.29,517.28,246.07,516.12,252.78z"/>
		<path class="st7" d="M564.73,298.12c1.46,0.18,3.63,0.17,2.97,2.01c-0.79,2.21-0.68,5.61-3.76,6.07
			c-1.75,0.27-2.78-1.73-2.98-3.56C560.66,299.84,562.01,298.33,564.73,298.12z"/>
		<path class="st7" d="M504.71,327.23c-1.91-4.21-2.64-8.29,1.41-11.76c1.96-1.68,4.37-2.27,6.14-0.24c1.82,2.09,1.27,4.2-1.57,5.39
			c-3,1.26-3.79,4.08-4.53,6.89c0,0-0.76,0.04-0.76,0.04L504.71,327.23z"/>
		<path class="st7" d="M333.07,312.68c-4.95-8.52-9.55-15.46-9.17-24.74c0.19-4.6,2.79-7.45,4.91-10.74
			c1.55-2.41,4.02-1.73,6.22-0.56c1.97,1.05,5.33,1.87,4.1,4.62C334.84,290.84,337.43,301.75,333.07,312.68z"/>
		<path class="st7" d="M353.47,308.85c-5.4-6.19-7.58-12.18-6.59-19.19c0.93-6.6,5.81-9.04,11.51-10.07
			c2.72-0.49,4.67,1.13,3.66,4.2C359.4,291.89,356.54,299.93,353.47,308.85z"/>
		<path class="st7" d="M401.21,288.28c-0.69,3.19-1.23,6.62-2.21,9.91c-0.63,2.1-1.1,4.9-3.93,5.13c-3.06,0.25-4.56-2.28-5.64-4.6
			c-2.88-6.16,1.54-14.21,8.25-15.49C402.54,282.31,400.82,285.87,401.21,288.28z"/>
		<path class="st7" d="M378.63,285.29c-0.55,2.25-1.07,4.51-1.65,6.76c-0.68,2.62,1.11,6.28-2.62,7.58
			c-2.2,0.77-3.59-1.39-5.14-2.68c-3.05-2.54-3.94-5.84-2.71-9.42c1.35-3.94,4.85-5.72,8.61-6.7
			C379.34,279.73,379.37,282.24,378.63,285.29z"/>
		<path class="st7" d="M358.97,319.79c-0.46-7.26,3.01-9.28,8.02-9.3c2.29-0.01,5.7-1.26,5.99,2.94c0.19,2.76-7.25,14.62-8.73,14.02
			C360.25,325.83,359.32,322.15,358.97,319.79z"/>
		<path class="st7" d="M325.43,318.22c-4.75,3.06-2.42,11.38-8.39,12.84c-4.08,1-6.34-4.03-6.71-7.63c-0.55-5.42,3.28-7.74,8.3-7.73
			C320.92,315.71,323.97,314.23,325.43,318.22z"/>
		<path class="st7" d="M394.1,311.16c-2.33,3.75-0.68,10.77-6.61,12.46c-3.03,0.87-6.84-2.92-6.8-6.47
			c0.08-6.07,5.97-7.05,10.26-9.1C393.15,307.01,394.16,308.27,394.1,311.16z"/>
		<path class="st7" d="M360.92,271.63c-3.31-1.93-6.69-3.07-7.21-7.22c-0.55-4.44,1.1-7.49,5.62-8.21c2.87-0.45,6.96-0.22,6.27,3.66
			C364.9,263.77,364.34,268.36,360.92,271.63z"/>
		<path class="st7" d="M418.75,313.09c-6.25,1.83-3.63,12.59-12.33,9.79c-3.53-1.13-4.98-5.69-2.79-8.81
			C407.3,308.82,412.5,310.13,418.75,313.09z"/>
		<path class="st7" d="M463.35,288.34c-4.67-6.71-7.27-12.05-4.48-18.63c0.85-2.01,2.29-3.46,4.7-2.81c2.72,0.73,2.17,2.62,1.8,4.81
			C464.53,276.65,464.13,281.67,463.35,288.34z"/>
		<path class="st7" d="M351.07,318.21c-3.96,3.06,0.72,12.15-7.81,11.34c-2.8-0.26-5.9-2.2-5.13-5.89
			C339.62,316.43,345.41,317.66,351.07,318.21z"/>
		<path class="st7" d="M383.95,282.17c-5.87-6.26-6.29-12.21-5.37-18.36c0.35-2.36,1.68-4.61,4.7-3.88
			c2.72,0.66,2.47,3.15,1.96,5.02C383.87,270.06,383.74,275.26,383.95,282.17z"/>
		<path class="st7" d="M388.75,242.03c-4.24-5.33-5.6-10.4-2.87-15.9c1.04-2.09,3.31-3.71,5.75-2.71c2.85,1.16,2.69,3.54,0.78,5.61
			C389.2,232.52,392.09,237.58,388.75,242.03z"/>
		<path class="st7" d="M423.21,278.72c-5.64-3.97-7.18-8.54-5.64-14.03c0.69-2.46,2.81-3.75,5.48-3.12
			c3.12,0.74,1.71,2.79,1.39,4.78C423.83,270.19,423.64,274.1,423.21,278.72z"/>
		<path class="st7" d="M371.43,245.51c-6.55-3.14-8.01-8.27-5.66-14.79c0.79-2.2,2.66-3.07,4.83-2.61c2.81,0.59,2.58,2.66,1.73,4.7
			c-1.73,4.16-0.69,8.52-0.99,12.78L371.43,245.51z"/>
		<path class="st7" d="M402.41,277.67c-4.87-4.71-5.49-10.22-4.46-16.1c0.38-2.15,1.87-3.81,4.25-3.56
			c2.91,0.31,2.56,2.76,2.32,4.72C403.94,267.57,403.17,272.38,402.41,277.67z"/>
		<path class="st7" d="M337.73,269.69c-3.55-2.38-4.44-5.17-4.76-8c-0.36-3.15-0.52-6.46,3.1-8.29c1.37-0.69,2.88-1.28,4.03-0.21
			c2.58,2.4-0.37,4.79-0.45,7.22C339.54,263.38,338.47,266.31,337.73,269.69z"/>
		<path class="st7" d="M477.96,304.22c-3.25-0.05-3.67-2.05-4.62-3.32c-2.52-3.37-2.37-6.96-0.33-10.52
			c0.74-1.29,1.83-2.61,3.34-1.37c2.89,2.38,1.72,5.85,1.87,8.91C478.33,299.9,478.07,301.89,477.96,304.22z"/>
		<path class="st7" d="M466.19,331.54c-3.59-4.34-5.95-8.11-3.04-12.95c1.26-2.1,3.18-3.62,5.77-2.07c2.16,1.29,2.42,3.25,0.63,5.05
			C467.04,324.09,468.44,327.72,466.19,331.54z"/>
		<path class="st7" d="M452.95,309.03c-4.17-4.05-6.6-7.12-5.75-11.64c0.55-2.93,2.21-4.87,5.32-4.4c3.91,0.59,1.85,3.21,1.54,5.3
			C453.61,301.35,453.41,304.45,452.95,309.03z"/>
		<path class="st7" d="M429.24,251.04c-2.39-4.38-1.78-7.78-1.8-11.09c-0.03-3.36,1.76-5.41,4.76-6.36c0.94-0.3,2.76-0.1,3.12,0.5
			c1.69,2.81-1.2,4.59-2.01,6.85C432.26,243.88,430.99,246.73,429.24,251.04z"/>
		<path class="st7" d="M486.99,283.26c-4.43-5.68-6.45-9.75-2.99-14.79c1.15-1.67,3.85-2.49,4.45-1.36
			C491.11,272.15,487.31,276.6,486.99,283.26z"/>
		<path class="st7" d="M351.25,241.07c-5.45-2.56-8.16-8.61-5.99-12.75c1-1.91,2.54-2.21,4.36-1.77c1.9,0.46,2.02,1.95,1.43,3.4
			C349.53,233.64,351.48,237.29,351.25,241.07z"/>
		<path class="st7" d="M331.5,242.54c-4.42-4.73-4.89-8.88-3.46-13.28c0.57-1.74,2.08-2.88,4.06-2.57c2.23,0.35,2.61,2.09,2.22,3.94
			C333.57,234.21,332.65,237.74,331.5,242.54z"/>
		<path class="st7" d="M409.34,229.84c2.51,0.57,4.32,1.71,3.41,4.2c-1.14,3.12-2.34,8.03-4.42,8.56c-2.73,0.69-3.39-3.72-3.47-6.59
			C404.76,232.77,406.08,230.44,409.34,229.84z"/>
		<path class="st7" d="M441.12,279.4c-4.64-3.8-5.55-8.18-4.48-13.01c0.49-2.21,2.22-3.52,4.61-2.89c2.33,0.62,2.22,2.56,1.4,4.19
			C440.84,271.28,442.25,275.22,441.12,279.4z"/>
		<path class="st7" d="M484.65,328.91c-4.38-3.6-5.95-7.55-3.22-12.09c0.78-1.3,2.87-1.6,3.81-0.59
			C489.27,320.56,482.89,324.45,484.65,328.91z"/>
		<path class="st7" d="M439.71,298.31c-0.6,2.66,0.18,6.19-3.36,6.25c-3.36,0.05-3.43-3.13-3.53-5.74c-0.12-2.95,0.93-5.28,4.13-5.3
			C440.56,293.51,439.37,296.56,439.71,298.31z"/>
		<path class="st7" d="M449.5,250.46c-3.36-3.72-5.62-7.11-3.15-11.7c0.88-1.63,3.31-2.76,4.3-1.42
			C453.74,241.55,451.91,245.77,449.5,250.46z"/>
		<path class="st7" d="M471.94,253.47c-2.57-4.1-3.76-8.12-0.14-11.84c1.07-1.1,3.23-1.44,3.86-0.05
			C477.81,246.3,473.31,249.36,471.94,253.47z"/>
		<path class="st7" d="M319.56,274.11c-4.73-4.52-6.55-9.35-3.07-12.42c4.67-4.14,6.52-1.51,4.64,4.06
			C320.4,267.89,320.26,270.23,319.56,274.11z"/>
		<path class="st7" d="M243.29,269.91c11.22,1.7,11.28,1.72,6.83,11.79c-1.21,2.74-1.73,5.49-1.83,8.44
			c-0.08,2.54,0.4,5.83-2.68,6.77c-3.46,1.05-2.93-3.79-5.41-4.58C236.35,284.19,236.36,276.57,243.29,269.91z"/>
		<path class="st7" d="M267.87,307.01c-4.95-8.52-9.55-15.46-9.17-24.74c0.19-4.6,2.79-7.45,4.91-10.74
			c1.55-2.41,4.02-1.73,6.22-0.56c1.97,1.05,5.33,1.87,4.1,4.62C269.65,285.17,272.23,296.08,267.87,307.01z"/>
		<path class="st7" d="M288.28,303.18c-5.4-6.19-7.58-12.18-6.59-19.19c0.93-6.6,5.81-9.04,11.51-10.07
			c2.72-0.49,4.67,1.13,3.66,4.2C294.2,286.22,291.35,294.26,288.28,303.18z"/>
		<path class="st7" d="M295.73,265.96c-3.31-1.93-6.69-3.07-7.21-7.22c-0.55-4.44,1.1-7.49,5.62-8.21c2.87-0.45,6.96-0.22,6.27,3.66
			C299.7,258.1,299.15,262.69,295.73,265.96z"/>
		<path class="st7" d="M317.3,243.31c-6.55-3.14-8.01-8.27-5.66-14.79c0.79-2.2,2.66-3.07,4.83-2.61c2.81,0.59,2.58,2.66,1.73,4.7
			c-1.73,4.16-0.69,8.52-0.99,12.78L317.3,243.31z"/>
		<path class="st7" d="M272.53,264.02c-3.55-2.38-4.44-5.17-4.76-8c-0.36-3.15-0.52-6.46,3.1-8.29c1.37-0.69,2.88-1.28,4.03-0.21
			c2.58,2.4-0.37,4.79-0.45,7.22C274.34,257.71,273.28,260.64,272.53,264.02z"/>
		<path class="st7" d="M286.05,235.4c-5.45-2.56-8.16-8.61-5.99-12.75c1-1.91,2.54-2.21,4.36-1.77c1.9,0.46,2.02,1.95,1.43,3.4
			C284.34,227.97,286.29,231.63,286.05,235.4z"/>
		<path class="st7" d="M266.3,236.87c-4.42-4.73-4.89-8.88-3.46-13.28c0.57-1.74,2.08-2.88,4.06-2.57c2.23,0.35,2.61,2.09,2.22,3.94
			C268.37,228.54,267.45,232.07,266.3,236.87z"/>
		<path class="st7" d="M371.43,220c-6.55-3.14-8.01-8.27-5.66-14.79c0.79-2.2,2.66-3.07,4.83-2.61c2.81,0.59,2.58,2.66,1.73,4.7
			c-1.73,4.16-0.69,8.52-0.99,12.78L371.43,220z"/>
		<path class="st7" d="M351.25,215.56c-5.45-2.56-8.16-8.61-5.99-12.75c1-1.91,2.54-2.21,4.36-1.77c1.9,0.46,2.02,1.95,1.43,3.4
			C349.53,208.13,351.48,211.78,351.25,215.56z"/>
		<path class="st7" d="M331.5,217.03c-4.42-4.73-4.89-8.88-3.46-13.28c0.57-1.74,2.08-2.88,4.06-2.57c2.23,0.35,2.61,2.09,2.22,3.94
			C333.57,208.7,332.65,212.23,331.5,217.03z"/>
		<path class="st7" d="M317.3,217.8c-6.55-3.14-8.01-8.27-5.66-14.79c0.79-2.2,2.66-3.07,4.83-2.61c2.81,0.59,2.58,2.66,1.73,4.7
			c-1.73,4.16-0.69,8.52-0.99,12.78L317.3,217.8z"/>
		<path class="st7" d="M286.05,209.89c-5.45-2.56-8.16-8.61-5.99-12.75c1-1.91,2.54-2.21,4.36-1.77c1.9,0.46,2.02,1.95,1.43,3.4
			C284.34,202.46,286.29,206.11,286.05,209.89z"/>
		<path class="st7" d="M266.3,211.36c-4.42-4.73-4.89-8.88-3.46-13.28c0.57-1.74,2.08-2.88,4.06-2.57c2.23,0.35,2.61,2.09,2.22,3.94
			C268.37,203.03,267.45,206.56,266.3,211.36z"/>
		<path class="st7" d="M254.36,268.44c-4.73-4.52-6.55-9.35-3.07-12.42c4.67-4.14,6.52-1.51,4.64,4.06
			C255.2,262.22,255.06,264.56,254.36,268.44z"/>
		<path class="st7" d="M503.27,286.59c-1.94-3.22-5.33-6.19-1.68-9.94c1.33-1.37,3.92-2.01,4.78-0.89
			C509.72,280.14,503.43,282.5,503.27,286.59z"/>
		<path class="st7" d="M495.93,253.47c-0.82,1.66,1.45,5.47-2.47,4.97c-3.59-0.46-2.68-4.66-3.69-7.17
			c-0.93-2.33,0.49-3.87,3.12-3.73C497.15,247.75,495.64,251.02,495.93,253.47z"/>
		<path class="st7" d="M490.84,304.19c-2.13-3.92-3.14-7.55,0.58-10.41c1.56-1.2,3.91-1.05,4.53,0.68
			C497.65,299.18,492.02,300.57,490.84,304.19z"/>
		<path class="st7" d="M509.05,306.55c-4.35-3.59-5-6.86-1.49-10.03c1.34-1.21,3.28-2.03,4.49-0.24
			C515.27,301.03,507.67,302.14,509.05,306.55z"/>
		<path class="st7" d="M371.36,245.59c0.22,0.1,0.44,0.21,0.67,0.31c-0.2-0.13-0.39-0.26-0.59-0.39
			C371.43,245.51,371.36,245.59,371.36,245.59z"/>
		<path class="st7" d="M236.56,217.39c1.84,0.12,4.65,0.7,5.98,3.1c1.28,2.32-1.49,3.49-2.74,4.89c-1.8,2.01-3.02,4.17-3.86,6.74
			c-0.8,2.45-1.91,5.57-5.05,5.24c-2.9-0.31-3.4-3.66-4.27-5.94C223.81,224.07,228.39,217.15,236.56,217.39z"/>
		<path class="st7" d="M238.75,248.75c2.06,0.52,4.93-1.02,5.8,2.28c0.33,1.25-9.07,14.89-9.92,14.49c-3.61-1.7-5.47-4.67-5.63-8.7
			C228.74,249.82,233.45,248.96,238.75,248.75z"/>
		<path class="st7" d="M215.48,282.26c3.19,0.08,6.54,0.92,4.66,3.68c-2.96,4.37-0.31,12.58-7.29,13.27
			c-3.28,0.33-6.91-4.25-6.52-9.02C206.81,284.26,211.55,283.26,215.48,282.26z"/>
	</g>
</g>
<g id="dot_x5F_1">
	<g>
		<path class="st8" d="M671.75,262.4c-2.41-1.5-6.14-0.52-8.41-3.29c-1.66-2.03-3.71-4.26-2.98-6.94c0.87-3.2,3.89-2.63,6.55-2.62
			c7.84,0.02,15.69-0.16,23.54-0.28c2.18-0.03,4.28,0.39,4.88,2.71c0.7,2.73-2.28,1.81-3.35,2.86
			C686.46,260.26,679.18,261.14,671.75,262.4z"/>
		<path class="st8" d="M377.18,175.32c-0.15-8.02,5.79-12.93,10.57-17.37c2.25-2.09,9.24,0,13.63,1.51
			c2.55,0.88,0.27,3.51-1.21,4.78c-6.15,5.29-12.37,10.51-18.65,15.65c-0.75,0.62-2.3,1.1-3.04,0.74
			C376.16,179.5,377.2,177.11,377.18,175.32z"/>
		<path class="st8" d="M351.41,174.09c-1-8.53,5.08-13.85,10.18-18.31c3.12-2.73,9.65-0.07,14.35,1.41
			c1.29,0.41-0.48,2.99-1.65,4.28c-5.67,6.26-13.76,9.73-19.1,16.42c-0.53,0.67-2.28,1.02-3.12,0.68
			C349.74,177.62,351.48,175.57,351.41,174.09z"/>
		<path class="st8" d="M308.49,275.58c11.22,1.7,11.28,1.72,6.83,11.79c-1.21,2.74-1.73,5.49-1.83,8.44
			c-0.08,2.54,0.4,5.83-2.68,6.77c-3.46,1.05-2.93-3.79-5.41-4.58C301.54,289.85,301.55,282.24,308.49,275.58z"/>
		<path class="st8" d="M667.96,285.17c-2.54-0.85-6.42-1.81-8-6.21c-1.75-4.89-1.44-8,5.13-6.71c5.91,1.16,11.9,1.95,17.85,2.92
			c2.04,0.33,2.89,1.85,3.11,3.64c0.3,2.36-2,1.28-2.97,2C679.01,283.87,674.23,284.82,667.96,285.17z"/>
		<path class="st8" d="M425.86,185.3c-0.87-6.15,1.2-10.71,5.47-14.37c4.69-4.02,10.77-2.99,14.02,2.22
			c1.29,2.06,1.92,3.45-1.1,4.52c-5.33,1.87-9.51,5.44-13.24,9.62c-1.15,1.29-2.47,2.58-4.51,1.91
			C423.61,188.24,426.27,186.23,425.86,185.3z"/>
		<path class="st8" d="M328.17,170.53c-0.34-6.45,3.51-11,7.85-12.94c3.52-1.58,8.94,0.06,13.15,1.41c2.79,0.89,1.04,3.35-0.67,4.58
			c-5.37,3.87-10.53,8.17-16.33,11.24C327.09,177.51,328.81,172.28,328.17,170.53z"/>
		<path class="st8" d="M466.63,192.54c-0.44-7.43,2.86-12.03,8.42-14.85c3.95-2.01,8.49-1.47,10.15,2.91
			c1.35,3.56,1.5,8.23-4.9,8.44c-3.54,0.12-5,3.73-7.61,5.49c-1.42,0.95-2.69,2.43-4.63,1.71
			C465.8,195.4,466.71,193.35,466.63,192.54z"/>
		<path class="st8" d="M490.8,197.73c0.29-5.98,3.57-10.31,9.2-10.78c4.29-0.36,8.94,4.49,6.72,7.86
			c-2.64,4.01-8.46,6.56-13.42,8.16C490.02,204.02,491.54,199.67,490.8,197.73z"/>
		<path class="st8" d="M448.69,185.23c0.98-4.99,3.05-9.24,8.45-9.65c4.4-0.34,8.44,3.51,6.93,6.88
			c-1.99,4.46-6.39,9.09-11.41,10.11C449.34,193.24,449.63,187.97,448.69,185.23z"/>
		<path class="st8" d="M532.72,204.46c-4.51,2.48-10.88,1.52-13.65,7.59c-1.02,2.23-2.28-0.63-2.71-1.32
			c-2.65-4.25-3.51-8.66,0.79-12.42c3.91-3.42,7.95-2.81,11.74,0.38C530.64,200.17,532.6,201.55,532.72,204.46z"/>
		<path class="st8" d="M413.98,166.41c2.05,0.46,5.04-1.3,6.08,1.69c0.84,2.4-1.87,3.34-3.14,4.79c-1.53,1.75-3.25,3.35-5.02,4.87
			c-2.33,2.01-3.97,5.71-7.8,4.53c-2.14-0.66-1.84-3.48-2.08-5.35c-0.48-3.74,0.94-6.92,4.36-8.82
			C408.71,166.86,411.18,165.88,413.98,166.41z"/>
		<path class="st8" d="M671.58,330.13c-7.91-0.22-8.4-6.05-8.99-11.59c-0.19-1.8-0.78-4.37,2.4-4.58
			c2.39-0.16,13.76,10.59,13.39,12.79C677.68,331.03,673.82,329.09,671.58,330.13z"/>
		<path class="st8" d="M304.7,308.56c0.88,3.3,5.78,7.3,2.05,9.54c-3.17,1.9-8.39,5.88-13.02,0.97
			C293.3,311.31,296.61,307.44,304.7,308.56z"/>
		<path class="st8" d="M674.95,293.34c-3.28,5.41,9.15,8.41,0.06,13.78c-3.47,2.05-6.63,1.2-7.96-2.05
			C664.56,299.01,668.91,296.3,674.95,293.34z"/>
		<path class="st8" d="M531.83,214.45c5.88-1,9.47-7.19,14.72-2.91c1.52,1.24,3.64,5.69,0.11,7.66
			C541.01,222.36,537.01,218.41,531.83,214.45z"/>
		<path class="st8" d="M402.78,215.95c-1.86,2.88-1.86,2.88-6.02-1.87c-0.22-2.31-0.39-4.64-0.69-6.94
			c-0.38-2.94,1.33-4.2,3.76-4.98c1.45-0.46,2.91-0.73,4,0.58c1.78,2.13,0.21,3.78-1.04,5.36
			C400.71,210.74,400.61,213.33,402.78,215.95z"/>
		<path class="st8" d="M609.64,274.57c0.15,6.53,8.93,8.76,2.9,15c-1.57,1.63-3.66,2.68-5.22,0.67
			C603.52,285.33,607.25,281.06,609.64,274.57z"/>
		<path class="st8" d="M483.75,235.01c-5.36,3.03-2.42-2.64-3.87-3.7c0.17-2.61,0.23-5.19,1.77-7.55c1.91-2.93,4.67-4.21,7.33-2.18
			c3.69,2.81-0.15,4.36-1.91,5.84C484.65,229.46,483.37,231.83,483.75,235.01z"/>
		<path class="st8" d="M520.05,287.6c-6.53-7.55-5.51-12.56,3.07-15.08C527.04,278.55,519.22,282.2,520.05,287.6z"/>
		<path class="st8" d="M500.93,241.77c-0.99-0.44-1.98-0.89-2.97-1.33c-0.75-3.89-3.09-7.81-0.18-11.68
			c1.24-1.65,2.93-3.1,5.23-2.09c2.93,1.29,1.4,3.27,0.49,5.03C501.86,234.87,501.23,238.28,500.93,241.77z"/>
		<path class="st8" d="M426.36,219.01c-1.23,1.08-2.53,3.12-3.67,3.04c-2.57-0.19-1.81-3.02-2.45-4.76c0.22-1.42,0.31-2.89,0.7-4.26
			c0.93-3.23,3.26-5.36,6.41-3.91c3.28,1.51-0.18,3.83-0.34,5.81C426.89,216.29,426.58,217.64,426.36,219.01z"/>
		<path class="st8" d="M586.86,267.72c-2.03-2.58-1.7-5.48-1.08-8.12c0.57-2.43,1.57-5.18,4.78-5.29c1.29-0.04,3.19,0.37,3.8,1.26
			c1.95,2.86-1.47,3.79-2.63,5.37C590.12,263.12,590.04,266.44,586.86,267.72z"/>
		<path class="st8" d="M544.63,279.25c-3.23,1.49-2.76,6.85-6.69,7.57c-1.69,0.31-3.58-2.97-3.31-5.3c0.37-3.2,1.62-6.25,5.72-6.37
			C542.73,275.09,544.16,276.22,544.63,279.25z"/>
		<path class="st8" d="M635.37,269.51c-4.83-2.51-6.6-6.01-4.5-10.72c0.73-1.64,2.53-3.21,4.17-1.92
			C639.91,260.66,634.48,265.22,635.37,269.51z"/>
		<path class="st8" d="M445.62,220.81c-1.03,2.24-2.06,4.48-3.28,7.15c-3.24-2.27-3.14-5.44-3.84-8.22
			c1.84-2.58,2.44-7.46,7.09-5.55C449.21,215.68,445.78,218.55,445.62,220.81z"/>
		<path class="st8" d="M527.59,263.1c-0.05-2.37-0.09-4.74-0.14-7.12c1.48-2.95,3.95-4.73,6.89-2.93c3,1.84,0.05,5.13-0.91,5.62
			C531.15,259.85,537.04,272.4,527.59,263.1z"/>
		<path class="st8" d="M467.28,225.96c-1.55,0.96-2.2,3.57-4.43,3.07c-2.07-0.47-1.33-2.65-1.62-4.15c0.34-0.77,0.69-1.54,1.02-2.32
			c1.59-3.75,4.82-5.89,7.87-3.16C473.3,222.24,467.98,223.57,467.28,225.96z"/>
		<path class="st8" d="M590.01,290.32c0-6.16,0-10.6,0-15.01C597,282.66,597,282.66,590.01,290.32z"/>
		<path class="st8" d="M519.07,323.11c0.1-2.87,1.88-4.91,3.45-7.05c7.32-1.12,4.5,3.37,3.72,6.73c-1.05,1.47-0.12,4.53-2.57,4.58
			C521.38,327.4,520.4,324.79,519.07,323.11z"/>
		<path class="st8" d="M522.5,307.47c-0.07-3.11-0.26-6.24,1.8-8.92c2.2-0.41,6.07-1.3,6,0.75c-0.13,3.66-1.97,7.53-4.02,10.73
			C525.51,311.24,523.63,308.67,522.5,307.47z"/>
		<path class="st8" d="M571.73,290.36c-3.04-5.04-3.33-8.95,0.27-12.51c1.61-1.59,5.13-1.49,5.4-0.05
			C578.31,282.68,573.87,285.52,571.73,290.36z"/>
		<path class="st8" d="M547.78,261c-3.04-5.76-3.99-9.47-0.05-12.76c1.62-1.35,4.12-0.9,4.55,0.63
			C553.48,253.17,549.83,255.87,547.78,261z"/>
		<path class="st8" d="M583.03,306.7c-2.11,1.07-4.02,2.79-6.68,2.12c-0.06-4.97,1.33-9.41,4.81-13.6
			C582.7,299.19,584.65,302.63,583.03,306.7z"/>
		<path class="st8" d="M636.25,306.75c-4.43-4.99-6.36-8.12-2.6-11.99c1.26-1.3,3.83-2.38,4.58-1.2
			C641.08,298.07,635.95,300.84,636.25,306.75z"/>
		<path class="st8" d="M522.44,242.81c-4.32-4.62-4.54-7.94-1.18-11.09c1.31-1.23,3.79-1.97,4.64-0.42
			C528.39,235.76,523.05,237.71,522.44,242.81z"/>
		<path class="st8" d="M550.29,304.52c-4.28-5.18-4.86-8.62-1.97-12c1.5-1.75,4.35-2.04,5.33-0.16
			C555.99,296.83,550.36,298.79,550.29,304.52z"/>
		<path class="st8" d="M570.75,268.15c-3.82-4.96-5.69-8.03-2.64-11.63c1.01-1.19,3.06-2.95,4.33-1.33
			C575.64,259.25,571.12,262.36,570.75,268.15z"/>
		<path class="st8" d="M558.84,283.93c-4.45-3.42-4.42-7.05-1.78-10.65c1.34-1.83,4.14-2.35,5.32-0.41
			C565.44,277.87,558.05,279.33,558.84,283.93z"/>
		<path class="st8" d="M621.39,270.63c-4.79-3.58-5.89-6.44-3.24-9.91c0.99-1.29,2.98-1.47,3.93-0.53
			C625.49,263.59,620.83,266.15,621.39,270.63z"/>
		<path class="st8" d="M657.46,333.76c-4.14,3.29-7.4,3.37-10.39-0.13c-0.79-0.92-1.37-2.36-0.26-2.96
			C650.91,328.46,653.58,331.71,657.46,333.76z"/>
		<path class="st8" d="M606.45,259.46c1.92,0.12,3.82,0.24,3.2,2.18c-0.74,2.34-0.95,5.47-3.63,6.44c-2.18,0.79-2.76-1.45-2.99-3.11
			C602.61,262,603.79,260,606.45,259.46z"/>
		<path class="st8" d="M516.12,252.78c-1.77,0.88-0.47,5.01-3.41,4.04c-3.42-1.13-2.57-4.7-2.66-7.52
			C512.75,249.29,517.28,246.07,516.12,252.78z"/>
		<path class="st8" d="M564.73,298.12c1.46,0.18,3.63,0.17,2.97,2.01c-0.79,2.21-0.68,5.61-3.76,6.07
			c-1.75,0.27-2.78-1.73-2.98-3.56C560.66,299.84,562.01,298.33,564.73,298.12z"/>
		<path class="st8" d="M504.71,327.23c-1.91-4.21-2.64-8.29,1.41-11.76c1.96-1.68,4.37-2.27,6.14-0.24c1.82,2.09,1.27,4.2-1.57,5.39
			c-3,1.26-3.79,4.08-4.53,6.89c0,0-0.76,0.04-0.76,0.04L504.71,327.23z"/>
		<path class="st8" d="M333.07,312.68c-4.95-8.52-9.55-15.46-9.17-24.74c0.19-4.6,2.79-7.45,4.91-10.74
			c1.55-2.41,4.02-1.73,6.22-0.56c1.97,1.05,5.33,1.87,4.1,4.62C334.84,290.84,337.43,301.75,333.07,312.68z"/>
		<path class="st8" d="M353.47,308.85c-5.4-6.19-7.58-12.18-6.59-19.19c0.93-6.6,5.81-9.04,11.51-10.07
			c2.72-0.49,4.67,1.13,3.66,4.2C359.4,291.89,356.54,299.93,353.47,308.85z"/>
		<path class="st8" d="M401.21,288.28c-0.69,3.19-1.23,6.62-2.21,9.91c-0.63,2.1-1.1,4.9-3.93,5.13c-3.06,0.25-4.56-2.28-5.64-4.6
			c-2.88-6.16,1.54-14.21,8.25-15.49C402.54,282.31,400.82,285.87,401.21,288.28z"/>
		<path class="st8" d="M378.63,285.29c-0.55,2.25-1.07,4.51-1.65,6.76c-0.68,2.62,1.11,6.28-2.62,7.58
			c-2.2,0.77-3.59-1.39-5.14-2.68c-3.05-2.54-3.94-5.84-2.71-9.42c1.35-3.94,4.85-5.72,8.61-6.7
			C379.34,279.73,379.37,282.24,378.63,285.29z"/>
		<path class="st8" d="M358.97,319.79c-0.46-7.26,3.01-9.28,8.02-9.3c2.29-0.01,5.7-1.26,5.99,2.94c0.19,2.76-7.25,14.62-8.73,14.02
			C360.25,325.83,359.32,322.15,358.97,319.79z"/>
		<path class="st8" d="M325.43,318.22c-4.75,3.06-2.42,11.38-8.39,12.84c-4.08,1-6.34-4.03-6.71-7.63c-0.55-5.42,3.28-7.74,8.3-7.73
			C320.92,315.71,323.97,314.23,325.43,318.22z"/>
		<path class="st8" d="M394.1,311.16c-2.33,3.75-0.68,10.77-6.61,12.46c-3.03,0.87-6.84-2.92-6.8-6.47
			c0.08-6.07,5.97-7.05,10.26-9.1C393.15,307.01,394.16,308.27,394.1,311.16z"/>
		<path class="st8" d="M360.92,271.63c-3.31-1.93-6.69-3.07-7.21-7.22c-0.55-4.44,1.1-7.49,5.62-8.21c2.87-0.45,6.96-0.22,6.27,3.66
			C364.9,263.77,364.34,268.36,360.92,271.63z"/>
		<path class="st8" d="M418.75,313.09c-6.25,1.83-3.63,12.59-12.33,9.79c-3.53-1.13-4.98-5.69-2.79-8.81
			C407.3,308.82,412.5,310.13,418.75,313.09z"/>
		<path class="st8" d="M463.35,288.34c-4.67-6.71-7.27-12.05-4.48-18.63c0.85-2.01,2.29-3.46,4.7-2.81c2.72,0.73,2.17,2.62,1.8,4.81
			C464.53,276.65,464.13,281.67,463.35,288.34z"/>
		<path class="st8" d="M351.07,318.21c-3.96,3.06,0.72,12.15-7.81,11.34c-2.8-0.26-5.9-2.2-5.13-5.89
			C339.62,316.43,345.41,317.66,351.07,318.21z"/>
		<path class="st8" d="M383.95,282.17c-5.87-6.26-6.29-12.21-5.37-18.36c0.35-2.36,1.68-4.61,4.7-3.88
			c2.72,0.66,2.47,3.15,1.96,5.02C383.87,270.06,383.74,275.26,383.95,282.17z"/>
		<path class="st8" d="M388.75,242.03c-4.24-5.33-5.6-10.4-2.87-15.9c1.04-2.09,3.31-3.71,5.75-2.71c2.85,1.16,2.69,3.54,0.78,5.61
			C389.2,232.52,392.09,237.58,388.75,242.03z"/>
		<path class="st8" d="M423.21,278.72c-5.64-3.97-7.18-8.54-5.64-14.03c0.69-2.46,2.81-3.75,5.48-3.12
			c3.12,0.74,1.71,2.79,1.39,4.78C423.83,270.19,423.64,274.1,423.21,278.72z"/>
		<path class="st8" d="M371.43,245.51c-6.55-3.14-8.01-8.27-5.66-14.79c0.79-2.2,2.66-3.07,4.83-2.61c2.81,0.59,2.58,2.66,1.73,4.7
			c-1.73,4.16-0.69,8.52-0.99,12.78L371.43,245.51z"/>
		<path class="st8" d="M402.41,277.67c-4.87-4.71-5.49-10.22-4.46-16.1c0.38-2.15,1.87-3.81,4.25-3.56
			c2.91,0.31,2.56,2.76,2.32,4.72C403.94,267.57,403.17,272.38,402.41,277.67z"/>
		<path class="st8" d="M337.73,269.69c-3.55-2.38-4.44-5.17-4.76-8c-0.36-3.15-0.52-6.46,3.1-8.29c1.37-0.69,2.88-1.28,4.03-0.21
			c2.58,2.4-0.37,4.79-0.45,7.22C339.54,263.38,338.47,266.31,337.73,269.69z"/>
		<path class="st8" d="M477.96,304.22c-3.25-0.05-3.67-2.05-4.62-3.32c-2.52-3.37-2.37-6.96-0.33-10.52
			c0.74-1.29,1.83-2.61,3.34-1.37c2.89,2.38,1.72,5.85,1.87,8.91C478.33,299.9,478.07,301.89,477.96,304.22z"/>
		<path class="st8" d="M466.19,331.54c-3.59-4.34-5.95-8.11-3.04-12.95c1.26-2.1,3.18-3.62,5.77-2.07c2.16,1.29,2.42,3.25,0.63,5.05
			C467.04,324.09,468.44,327.72,466.19,331.54z"/>
		<path class="st8" d="M452.95,309.03c-4.17-4.05-6.6-7.12-5.75-11.64c0.55-2.93,2.21-4.87,5.32-4.4c3.91,0.59,1.85,3.21,1.54,5.3
			C453.61,301.35,453.41,304.45,452.95,309.03z"/>
		<path class="st8" d="M429.24,251.04c-2.39-4.38-1.78-7.78-1.8-11.09c-0.03-3.36,1.76-5.41,4.76-6.36c0.94-0.3,2.76-0.1,3.12,0.5
			c1.69,2.81-1.2,4.59-2.01,6.85C432.26,243.88,430.99,246.73,429.24,251.04z"/>
		<path class="st8" d="M486.99,283.26c-4.43-5.68-6.45-9.75-2.99-14.79c1.15-1.67,3.85-2.49,4.45-1.36
			C491.11,272.15,487.31,276.6,486.99,283.26z"/>
		<path class="st8" d="M351.25,241.07c-5.45-2.56-8.16-8.61-5.99-12.75c1-1.91,2.54-2.21,4.36-1.77c1.9,0.46,2.02,1.95,1.43,3.4
			C349.53,233.64,351.48,237.29,351.25,241.07z"/>
		<path class="st8" d="M331.5,242.54c-4.42-4.73-4.89-8.88-3.46-13.28c0.57-1.74,2.08-2.88,4.06-2.57c2.23,0.35,2.61,2.09,2.22,3.94
			C333.57,234.21,332.65,237.74,331.5,242.54z"/>
		<path class="st8" d="M409.34,229.84c2.51,0.57,4.32,1.71,3.41,4.2c-1.14,3.12-2.34,8.03-4.42,8.56c-2.73,0.69-3.39-3.72-3.47-6.59
			C404.76,232.77,406.08,230.44,409.34,229.84z"/>
		<path class="st8" d="M441.12,279.4c-4.64-3.8-5.55-8.18-4.48-13.01c0.49-2.21,2.22-3.52,4.61-2.89c2.33,0.62,2.22,2.56,1.4,4.19
			C440.84,271.28,442.25,275.22,441.12,279.4z"/>
		<path class="st8" d="M484.65,328.91c-4.38-3.6-5.95-7.55-3.22-12.09c0.78-1.3,2.87-1.6,3.81-0.59
			C489.27,320.56,482.89,324.45,484.65,328.91z"/>
		<path class="st8" d="M439.71,298.31c-0.6,2.66,0.18,6.19-3.36,6.25c-3.36,0.05-3.43-3.13-3.53-5.74c-0.12-2.95,0.93-5.28,4.13-5.3
			C440.56,293.51,439.37,296.56,439.71,298.31z"/>
		<path class="st8" d="M449.5,250.46c-3.36-3.72-5.62-7.11-3.15-11.7c0.88-1.63,3.31-2.76,4.3-1.42
			C453.74,241.55,451.91,245.77,449.5,250.46z"/>
		<path class="st8" d="M471.94,253.47c-2.57-4.1-3.76-8.12-0.14-11.84c1.07-1.1,3.23-1.44,3.86-0.05
			C477.81,246.3,473.31,249.36,471.94,253.47z"/>
		<path class="st8" d="M319.56,274.11c-4.73-4.52-6.55-9.35-3.07-12.42c4.67-4.14,6.52-1.51,4.64,4.06
			C320.4,267.89,320.26,270.23,319.56,274.11z"/>
		<path class="st8" d="M243.29,269.91c11.22,1.7,11.28,1.72,6.83,11.79c-1.21,2.74-1.73,5.49-1.83,8.44
			c-0.08,2.54,0.4,5.83-2.68,6.77c-3.46,1.05-2.93-3.79-5.41-4.58C236.35,284.19,236.36,276.57,243.29,269.91z"/>
		<path class="st8" d="M267.87,307.01c-4.95-8.52-9.55-15.46-9.17-24.74c0.19-4.6,2.79-7.45,4.91-10.74
			c1.55-2.41,4.02-1.73,6.22-0.56c1.97,1.05,5.33,1.87,4.1,4.62C269.65,285.17,272.23,296.08,267.87,307.01z"/>
		<path class="st8" d="M288.28,303.18c-5.4-6.19-7.58-12.18-6.59-19.19c0.93-6.6,5.81-9.04,11.51-10.07
			c2.72-0.49,4.67,1.13,3.66,4.2C294.2,286.22,291.35,294.26,288.28,303.18z"/>
		<path class="st8" d="M295.73,265.96c-3.31-1.93-6.69-3.07-7.21-7.22c-0.55-4.44,1.1-7.49,5.62-8.21c2.87-0.45,6.96-0.22,6.27,3.66
			C299.7,258.1,299.15,262.69,295.73,265.96z"/>
		<path class="st8" d="M317.3,243.31c-6.55-3.14-8.01-8.27-5.66-14.79c0.79-2.2,2.66-3.07,4.83-2.61c2.81,0.59,2.58,2.66,1.73,4.7
			c-1.73,4.16-0.69,8.52-0.99,12.78L317.3,243.31z"/>
		<path class="st8" d="M272.53,264.02c-3.55-2.38-4.44-5.17-4.76-8c-0.36-3.15-0.52-6.46,3.1-8.29c1.37-0.69,2.88-1.28,4.03-0.21
			c2.58,2.4-0.37,4.79-0.45,7.22C274.34,257.71,273.28,260.64,272.53,264.02z"/>
		<path class="st8" d="M286.05,235.4c-5.45-2.56-8.16-8.61-5.99-12.75c1-1.91,2.54-2.21,4.36-1.77c1.9,0.46,2.02,1.95,1.43,3.4
			C284.34,227.97,286.29,231.63,286.05,235.4z"/>
		<path class="st8" d="M266.3,236.87c-4.42-4.73-4.89-8.88-3.46-13.28c0.57-1.74,2.08-2.88,4.06-2.57c2.23,0.35,2.61,2.09,2.22,3.94
			C268.37,228.54,267.45,232.07,266.3,236.87z"/>
		<path class="st8" d="M371.43,220c-6.55-3.14-8.01-8.27-5.66-14.79c0.79-2.2,2.66-3.07,4.83-2.61c2.81,0.59,2.58,2.66,1.73,4.7
			c-1.73,4.16-0.69,8.52-0.99,12.78L371.43,220z"/>
		<path class="st8" d="M351.25,215.56c-5.45-2.56-8.16-8.61-5.99-12.75c1-1.91,2.54-2.21,4.36-1.77c1.9,0.46,2.02,1.95,1.43,3.4
			C349.53,208.13,351.48,211.78,351.25,215.56z"/>
		<path class="st8" d="M331.5,217.03c-4.42-4.73-4.89-8.88-3.46-13.28c0.57-1.74,2.08-2.88,4.06-2.57c2.23,0.35,2.61,2.09,2.22,3.94
			C333.57,208.7,332.65,212.23,331.5,217.03z"/>
		<path class="st8" d="M317.3,217.8c-6.55-3.14-8.01-8.27-5.66-14.79c0.79-2.2,2.66-3.07,4.83-2.61c2.81,0.59,2.58,2.66,1.73,4.7
			c-1.73,4.16-0.69,8.52-0.99,12.78L317.3,217.8z"/>
		<path class="st8" d="M286.05,209.89c-5.45-2.56-8.16-8.61-5.99-12.75c1-1.91,2.54-2.21,4.36-1.77c1.9,0.46,2.02,1.95,1.43,3.4
			C284.34,202.46,286.29,206.11,286.05,209.89z"/>
		<path class="st8" d="M266.3,211.36c-4.42-4.73-4.89-8.88-3.46-13.28c0.57-1.74,2.08-2.88,4.06-2.57c2.23,0.35,2.61,2.09,2.22,3.94
			C268.37,203.03,267.45,206.56,266.3,211.36z"/>
		<path class="st8" d="M254.36,268.44c-4.73-4.52-6.55-9.35-3.07-12.42c4.67-4.14,6.52-1.51,4.64,4.06
			C255.2,262.22,255.06,264.56,254.36,268.44z"/>
		<path class="st8" d="M503.27,286.59c-1.94-3.22-5.33-6.19-1.68-9.94c1.33-1.37,3.92-2.01,4.78-0.89
			C509.72,280.14,503.43,282.5,503.27,286.59z"/>
		<path class="st8" d="M495.93,253.47c-0.82,1.66,1.45,5.47-2.47,4.97c-3.59-0.46-2.68-4.66-3.69-7.17
			c-0.93-2.33,0.49-3.87,3.12-3.73C497.15,247.75,495.64,251.02,495.93,253.47z"/>
		<path class="st8" d="M490.84,304.19c-2.13-3.92-3.14-7.55,0.58-10.41c1.56-1.2,3.91-1.05,4.53,0.68
			C497.65,299.18,492.02,300.57,490.84,304.19z"/>
		<path class="st8" d="M509.05,306.55c-4.35-3.59-5-6.86-1.49-10.03c1.34-1.21,3.28-2.03,4.49-0.24
			C515.27,301.03,507.67,302.14,509.05,306.55z"/>
		<path class="st8" d="M371.36,245.59c0.22,0.1,0.44,0.21,0.67,0.31c-0.2-0.13-0.39-0.26-0.59-0.39
			C371.43,245.51,371.36,245.59,371.36,245.59z"/>
		<path class="st8" d="M236.56,217.39c1.84,0.12,4.65,0.7,5.98,3.1c1.28,2.32-1.49,3.49-2.74,4.89c-1.8,2.01-3.02,4.17-3.86,6.74
			c-0.8,2.45-1.91,5.57-5.05,5.24c-2.9-0.31-3.4-3.66-4.27-5.94C223.81,224.07,228.39,217.15,236.56,217.39z"/>
		<path class="st8" d="M238.75,248.75c2.06,0.52,4.93-1.02,5.8,2.28c0.33,1.25-9.07,14.89-9.92,14.49c-3.61-1.7-5.47-4.67-5.63-8.7
			C228.74,249.82,233.45,248.96,238.75,248.75z"/>
		<path class="st8" d="M215.48,282.26c3.19,0.08,6.54,0.92,4.66,3.68c-2.96,4.37-0.31,12.58-7.29,13.27
			c-3.28,0.33-6.91-4.25-6.52-9.02C206.81,284.26,211.55,283.26,215.48,282.26z"/>
	</g>
	<g>
		<path class="st9" d="M671.75,262.4c-2.41-1.5-6.14-0.52-8.41-3.29c-1.66-2.03-3.71-4.26-2.98-6.94c0.87-3.2,3.89-2.63,6.55-2.62
			c7.84,0.02,15.69-0.16,23.54-0.28c2.18-0.03,4.28,0.39,4.88,2.71c0.7,2.73-2.28,1.81-3.35,2.86
			C686.46,260.26,679.18,261.14,671.75,262.4z"/>
		<path class="st9" d="M377.18,175.32c-0.15-8.02,5.79-12.93,10.57-17.37c2.25-2.09,9.24,0,13.63,1.51
			c2.55,0.88,0.27,3.51-1.21,4.78c-6.15,5.29-12.37,10.51-18.65,15.65c-0.75,0.62-2.3,1.1-3.04,0.74
			C376.16,179.5,377.2,177.11,377.18,175.32z"/>
		<path class="st9" d="M351.41,174.09c-1-8.53,5.08-13.85,10.18-18.31c3.12-2.73,9.65-0.07,14.35,1.41
			c1.29,0.41-0.48,2.99-1.65,4.28c-5.67,6.26-13.76,9.73-19.1,16.42c-0.53,0.67-2.28,1.02-3.12,0.68
			C349.74,177.62,351.48,175.57,351.41,174.09z"/>
		<path class="st9" d="M308.49,275.58c11.22,1.7,11.28,1.72,6.83,11.79c-1.21,2.74-1.73,5.49-1.83,8.44
			c-0.08,2.54,0.4,5.83-2.68,6.77c-3.46,1.05-2.93-3.79-5.41-4.58C301.54,289.85,301.55,282.24,308.49,275.58z"/>
		<path class="st9" d="M667.96,285.17c-2.54-0.85-6.42-1.81-8-6.21c-1.75-4.89-1.44-8,5.13-6.71c5.91,1.16,11.9,1.95,17.85,2.92
			c2.04,0.33,2.89,1.85,3.11,3.64c0.3,2.36-2,1.28-2.97,2C679.01,283.87,674.23,284.82,667.96,285.17z"/>
		<path class="st9" d="M425.86,185.3c-0.87-6.15,1.2-10.71,5.47-14.37c4.69-4.02,10.77-2.99,14.02,2.22
			c1.29,2.06,1.92,3.45-1.1,4.52c-5.33,1.87-9.51,5.44-13.24,9.62c-1.15,1.29-2.47,2.58-4.51,1.91
			C423.61,188.24,426.27,186.23,425.86,185.3z"/>
		<path class="st9" d="M328.17,170.53c-0.34-6.45,3.51-11,7.85-12.94c3.52-1.58,8.94,0.06,13.15,1.41c2.79,0.89,1.04,3.35-0.67,4.58
			c-5.37,3.87-10.53,8.17-16.33,11.24C327.09,177.51,328.81,172.28,328.17,170.53z"/>
		<path class="st9" d="M466.63,192.54c-0.44-7.43,2.86-12.03,8.42-14.85c3.95-2.01,8.49-1.47,10.15,2.91
			c1.35,3.56,1.5,8.23-4.9,8.44c-3.54,0.12-5,3.73-7.61,5.49c-1.42,0.95-2.69,2.43-4.63,1.71
			C465.8,195.4,466.71,193.35,466.63,192.54z"/>
		<path class="st9" d="M490.8,197.73c0.29-5.98,3.57-10.31,9.2-10.78c4.29-0.36,8.94,4.49,6.72,7.86
			c-2.64,4.01-8.46,6.56-13.42,8.16C490.02,204.02,491.54,199.67,490.8,197.73z"/>
		<path class="st9" d="M448.69,185.23c0.98-4.99,3.05-9.24,8.45-9.65c4.4-0.34,8.44,3.51,6.93,6.88
			c-1.99,4.46-6.39,9.09-11.41,10.11C449.34,193.24,449.63,187.97,448.69,185.23z"/>
		<path class="st9" d="M532.72,204.46c-4.51,2.48-10.88,1.52-13.65,7.59c-1.02,2.23-2.28-0.63-2.71-1.32
			c-2.65-4.25-3.51-8.66,0.79-12.42c3.91-3.42,7.95-2.81,11.74,0.38C530.64,200.17,532.6,201.55,532.72,204.46z"/>
		<path class="st9" d="M413.98,166.41c2.05,0.46,5.04-1.3,6.08,1.69c0.84,2.4-1.87,3.34-3.14,4.79c-1.53,1.75-3.25,3.35-5.02,4.87
			c-2.33,2.01-3.97,5.71-7.8,4.53c-2.14-0.66-1.84-3.48-2.08-5.35c-0.48-3.74,0.94-6.92,4.36-8.82
			C408.71,166.86,411.18,165.88,413.98,166.41z"/>
		<path class="st9" d="M671.58,330.13c-7.91-0.22-8.4-6.05-8.99-11.59c-0.19-1.8-0.78-4.37,2.4-4.58
			c2.39-0.16,13.76,10.59,13.39,12.79C677.68,331.03,673.82,329.09,671.58,330.13z"/>
		<path class="st9" d="M304.7,308.56c0.88,3.3,5.78,7.3,2.05,9.54c-3.17,1.9-8.39,5.88-13.02,0.97
			C293.3,311.31,296.61,307.44,304.7,308.56z"/>
		<path class="st9" d="M674.95,293.34c-3.28,5.41,9.15,8.41,0.06,13.78c-3.47,2.05-6.63,1.2-7.96-2.05
			C664.56,299.01,668.91,296.3,674.95,293.34z"/>
		<path class="st9" d="M531.83,214.45c5.88-1,9.47-7.19,14.72-2.91c1.52,1.24,3.64,5.69,0.11,7.66
			C541.01,222.36,537.01,218.41,531.83,214.45z"/>
		<path class="st9" d="M402.78,215.95c-1.86,2.88-1.86,2.88-6.02-1.87c-0.22-2.31-0.39-4.64-0.69-6.94
			c-0.38-2.94,1.33-4.2,3.76-4.98c1.45-0.46,2.91-0.73,4,0.58c1.78,2.13,0.21,3.78-1.04,5.36
			C400.71,210.74,400.61,213.33,402.78,215.95z"/>
		<path class="st9" d="M609.64,274.57c0.15,6.53,8.93,8.76,2.9,15c-1.57,1.63-3.66,2.68-5.22,0.67
			C603.52,285.33,607.25,281.06,609.64,274.57z"/>
		<path class="st9" d="M483.75,235.01c-5.36,3.03-2.42-2.64-3.87-3.7c0.17-2.61,0.23-5.19,1.77-7.55c1.91-2.93,4.67-4.21,7.33-2.18
			c3.69,2.81-0.15,4.36-1.91,5.84C484.65,229.46,483.37,231.83,483.75,235.01z"/>
		<path class="st9" d="M520.05,287.6c-6.53-7.55-5.51-12.56,3.07-15.08C527.04,278.55,519.22,282.2,520.05,287.6z"/>
		<path class="st9" d="M500.93,241.77c-0.99-0.44-1.98-0.89-2.97-1.33c-0.75-3.89-3.09-7.81-0.18-11.68
			c1.24-1.65,2.93-3.1,5.23-2.09c2.93,1.29,1.4,3.27,0.49,5.03C501.86,234.87,501.23,238.28,500.93,241.77z"/>
		<path class="st9" d="M426.36,219.01c-1.23,1.08-2.53,3.12-3.67,3.04c-2.57-0.19-1.81-3.02-2.45-4.76c0.22-1.42,0.31-2.89,0.7-4.26
			c0.93-3.23,3.26-5.36,6.41-3.91c3.28,1.51-0.18,3.83-0.34,5.81C426.89,216.29,426.58,217.64,426.36,219.01z"/>
		<path class="st9" d="M586.86,267.72c-2.03-2.58-1.7-5.48-1.08-8.12c0.57-2.43,1.57-5.18,4.78-5.29c1.29-0.04,3.19,0.37,3.8,1.26
			c1.95,2.86-1.47,3.79-2.63,5.37C590.12,263.12,590.04,266.44,586.86,267.72z"/>
		<path class="st9" d="M544.63,279.25c-3.23,1.49-2.76,6.85-6.69,7.57c-1.69,0.31-3.58-2.97-3.31-5.3c0.37-3.2,1.62-6.25,5.72-6.37
			C542.73,275.09,544.16,276.22,544.63,279.25z"/>
		<path class="st9" d="M635.37,269.51c-4.83-2.51-6.6-6.01-4.5-10.72c0.73-1.64,2.53-3.21,4.17-1.92
			C639.91,260.66,634.48,265.22,635.37,269.51z"/>
		<path class="st9" d="M445.62,220.81c-1.03,2.24-2.06,4.48-3.28,7.15c-3.24-2.27-3.14-5.44-3.84-8.22
			c1.84-2.58,2.44-7.46,7.09-5.55C449.21,215.68,445.78,218.55,445.62,220.81z"/>
		<path class="st9" d="M527.59,263.1c-0.05-2.37-0.09-4.74-0.14-7.12c1.48-2.95,3.95-4.73,6.89-2.93c3,1.84,0.05,5.13-0.91,5.62
			C531.15,259.85,537.04,272.4,527.59,263.1z"/>
		<path class="st9" d="M467.28,225.96c-1.55,0.96-2.2,3.57-4.43,3.07c-2.07-0.47-1.33-2.65-1.62-4.15c0.34-0.77,0.69-1.54,1.02-2.32
			c1.59-3.75,4.82-5.89,7.87-3.16C473.3,222.24,467.98,223.57,467.28,225.96z"/>
		<path class="st9" d="M590.01,290.32c0-6.16,0-10.6,0-15.01C597,282.66,597,282.66,590.01,290.32z"/>
		<path class="st9" d="M519.07,323.11c0.1-2.87,1.88-4.91,3.45-7.05c7.32-1.12,4.5,3.37,3.72,6.73c-1.05,1.47-0.12,4.53-2.57,4.58
			C521.38,327.4,520.4,324.79,519.07,323.11z"/>
		<path class="st9" d="M522.5,307.47c-0.07-3.11-0.26-6.24,1.8-8.92c2.2-0.41,6.07-1.3,6,0.75c-0.13,3.66-1.97,7.53-4.02,10.73
			C525.51,311.24,523.63,308.67,522.5,307.47z"/>
		<path class="st9" d="M571.73,290.36c-3.04-5.04-3.33-8.95,0.27-12.51c1.61-1.59,5.13-1.49,5.4-0.05
			C578.31,282.68,573.87,285.52,571.73,290.36z"/>
		<path class="st9" d="M547.78,261c-3.04-5.76-3.99-9.47-0.05-12.76c1.62-1.35,4.12-0.9,4.55,0.63
			C553.48,253.17,549.83,255.87,547.78,261z"/>
		<path class="st9" d="M583.03,306.7c-2.11,1.07-4.02,2.79-6.68,2.12c-0.06-4.97,1.33-9.41,4.81-13.6
			C582.7,299.19,584.65,302.63,583.03,306.7z"/>
		<path class="st9" d="M636.25,306.75c-4.43-4.99-6.36-8.12-2.6-11.99c1.26-1.3,3.83-2.38,4.58-1.2
			C641.08,298.07,635.95,300.84,636.25,306.75z"/>
		<path class="st9" d="M522.44,242.81c-4.32-4.62-4.54-7.94-1.18-11.09c1.31-1.23,3.79-1.97,4.64-0.42
			C528.39,235.76,523.05,237.71,522.44,242.81z"/>
		<path class="st9" d="M550.29,304.52c-4.28-5.18-4.86-8.62-1.97-12c1.5-1.75,4.35-2.04,5.33-0.16
			C555.99,296.83,550.36,298.79,550.29,304.52z"/>
		<path class="st9" d="M570.75,268.15c-3.82-4.96-5.69-8.03-2.64-11.63c1.01-1.19,3.06-2.95,4.33-1.33
			C575.64,259.25,571.12,262.36,570.75,268.15z"/>
		<path class="st9" d="M558.84,283.93c-4.45-3.42-4.42-7.05-1.78-10.65c1.34-1.83,4.14-2.35,5.32-0.41
			C565.44,277.87,558.05,279.33,558.84,283.93z"/>
		<path class="st9" d="M621.39,270.63c-4.79-3.58-5.89-6.44-3.24-9.91c0.99-1.29,2.98-1.47,3.93-0.53
			C625.49,263.59,620.83,266.15,621.39,270.63z"/>
		<path class="st9" d="M657.46,333.76c-4.14,3.29-7.4,3.37-10.39-0.13c-0.79-0.92-1.37-2.36-0.26-2.96
			C650.91,328.46,653.58,331.71,657.46,333.76z"/>
		<path class="st9" d="M606.45,259.46c1.92,0.12,3.82,0.24,3.2,2.18c-0.74,2.34-0.95,5.47-3.63,6.44c-2.18,0.79-2.76-1.45-2.99-3.11
			C602.61,262,603.79,260,606.45,259.46z"/>
		<path class="st9" d="M516.12,252.78c-1.77,0.88-0.47,5.01-3.41,4.04c-3.42-1.13-2.57-4.7-2.66-7.52
			C512.75,249.29,517.28,246.07,516.12,252.78z"/>
		<path class="st9" d="M564.73,298.12c1.46,0.18,3.63,0.17,2.97,2.01c-0.79,2.21-0.68,5.61-3.76,6.07
			c-1.75,0.27-2.78-1.73-2.98-3.56C560.66,299.84,562.01,298.33,564.73,298.12z"/>
		<path class="st9" d="M504.71,327.23c-1.91-4.21-2.64-8.29,1.41-11.76c1.96-1.68,4.37-2.27,6.14-0.24c1.82,2.09,1.27,4.2-1.57,5.39
			c-3,1.26-3.79,4.08-4.53,6.89c0,0-0.76,0.04-0.76,0.04L504.71,327.23z"/>
		<path class="st9" d="M333.07,312.68c-4.95-8.52-9.55-15.46-9.17-24.74c0.19-4.6,2.79-7.45,4.91-10.74
			c1.55-2.41,4.02-1.73,6.22-0.56c1.97,1.05,5.33,1.87,4.1,4.62C334.84,290.84,337.43,301.75,333.07,312.68z"/>
		<path class="st9" d="M353.47,308.85c-5.4-6.19-7.58-12.18-6.59-19.19c0.93-6.6,5.81-9.04,11.51-10.07
			c2.72-0.49,4.67,1.13,3.66,4.2C359.4,291.89,356.54,299.93,353.47,308.85z"/>
		<path class="st9" d="M401.21,288.28c-0.69,3.19-1.23,6.62-2.21,9.91c-0.63,2.1-1.1,4.9-3.93,5.13c-3.06,0.25-4.56-2.28-5.64-4.6
			c-2.88-6.16,1.54-14.21,8.25-15.49C402.54,282.31,400.82,285.87,401.21,288.28z"/>
		<path class="st9" d="M378.63,285.29c-0.55,2.25-1.07,4.51-1.65,6.76c-0.68,2.62,1.11,6.28-2.62,7.58
			c-2.2,0.77-3.59-1.39-5.14-2.68c-3.05-2.54-3.94-5.84-2.71-9.42c1.35-3.94,4.85-5.72,8.61-6.7
			C379.34,279.73,379.37,282.24,378.63,285.29z"/>
		<path class="st9" d="M358.97,319.79c-0.46-7.26,3.01-9.28,8.02-9.3c2.29-0.01,5.7-1.26,5.99,2.94c0.19,2.76-7.25,14.62-8.73,14.02
			C360.25,325.83,359.32,322.15,358.97,319.79z"/>
		<path class="st9" d="M325.43,318.22c-4.75,3.06-2.42,11.38-8.39,12.84c-4.08,1-6.34-4.03-6.71-7.63c-0.55-5.42,3.28-7.74,8.3-7.73
			C320.92,315.71,323.97,314.23,325.43,318.22z"/>
		<path class="st9" d="M394.1,311.16c-2.33,3.75-0.68,10.77-6.61,12.46c-3.03,0.87-6.84-2.92-6.8-6.47
			c0.08-6.07,5.97-7.05,10.26-9.1C393.15,307.01,394.16,308.27,394.1,311.16z"/>
		<path class="st9" d="M360.92,271.63c-3.31-1.93-6.69-3.07-7.21-7.22c-0.55-4.44,1.1-7.49,5.62-8.21c2.87-0.45,6.96-0.22,6.27,3.66
			C364.9,263.77,364.34,268.36,360.92,271.63z"/>
		<path class="st9" d="M418.75,313.09c-6.25,1.83-3.63,12.59-12.33,9.79c-3.53-1.13-4.98-5.69-2.79-8.81
			C407.3,308.82,412.5,310.13,418.75,313.09z"/>
		<path class="st9" d="M463.35,288.34c-4.67-6.71-7.27-12.05-4.48-18.63c0.85-2.01,2.29-3.46,4.7-2.81c2.72,0.73,2.17,2.62,1.8,4.81
			C464.53,276.65,464.13,281.67,463.35,288.34z"/>
		<path class="st9" d="M351.07,318.21c-3.96,3.06,0.72,12.15-7.81,11.34c-2.8-0.26-5.9-2.2-5.13-5.89
			C339.62,316.43,345.41,317.66,351.07,318.21z"/>
		<path class="st9" d="M383.95,282.17c-5.87-6.26-6.29-12.21-5.37-18.36c0.35-2.36,1.68-4.61,4.7-3.88
			c2.72,0.66,2.47,3.15,1.96,5.02C383.87,270.06,383.74,275.26,383.95,282.17z"/>
		<path class="st9" d="M388.75,242.03c-4.24-5.33-5.6-10.4-2.87-15.9c1.04-2.09,3.31-3.71,5.75-2.71c2.85,1.16,2.69,3.54,0.78,5.61
			C389.2,232.52,392.09,237.58,388.75,242.03z"/>
		<path class="st9" d="M423.21,278.72c-5.64-3.97-7.18-8.54-5.64-14.03c0.69-2.46,2.81-3.75,5.48-3.12
			c3.12,0.74,1.71,2.79,1.39,4.78C423.83,270.19,423.64,274.1,423.21,278.72z"/>
		<path class="st9" d="M371.43,245.51c-6.55-3.14-8.01-8.27-5.66-14.79c0.79-2.2,2.66-3.07,4.83-2.61c2.81,0.59,2.58,2.66,1.73,4.7
			c-1.73,4.16-0.69,8.52-0.99,12.78L371.43,245.51z"/>
		<path class="st9" d="M402.41,277.67c-4.87-4.71-5.49-10.22-4.46-16.1c0.38-2.15,1.87-3.81,4.25-3.56
			c2.91,0.31,2.56,2.76,2.32,4.72C403.94,267.57,403.17,272.38,402.41,277.67z"/>
		<path class="st9" d="M337.73,269.69c-3.55-2.38-4.44-5.17-4.76-8c-0.36-3.15-0.52-6.46,3.1-8.29c1.37-0.69,2.88-1.28,4.03-0.21
			c2.58,2.4-0.37,4.79-0.45,7.22C339.54,263.38,338.47,266.31,337.73,269.69z"/>
		<path class="st9" d="M477.96,304.22c-3.25-0.05-3.67-2.05-4.62-3.32c-2.52-3.37-2.37-6.96-0.33-10.52
			c0.74-1.29,1.83-2.61,3.34-1.37c2.89,2.38,1.72,5.85,1.87,8.91C478.33,299.9,478.07,301.89,477.96,304.22z"/>
		<path class="st9" d="M466.19,331.54c-3.59-4.34-5.95-8.11-3.04-12.95c1.26-2.1,3.18-3.62,5.77-2.07c2.16,1.29,2.42,3.25,0.63,5.05
			C467.04,324.09,468.44,327.72,466.19,331.54z"/>
		<path class="st9" d="M452.95,309.03c-4.17-4.05-6.6-7.12-5.75-11.64c0.55-2.93,2.21-4.87,5.32-4.4c3.91,0.59,1.85,3.21,1.54,5.3
			C453.61,301.35,453.41,304.45,452.95,309.03z"/>
		<path class="st9" d="M429.24,251.04c-2.39-4.38-1.78-7.78-1.8-11.09c-0.03-3.36,1.76-5.41,4.76-6.36c0.94-0.3,2.76-0.1,3.12,0.5
			c1.69,2.81-1.2,4.59-2.01,6.85C432.26,243.88,430.99,246.73,429.24,251.04z"/>
		<path class="st9" d="M486.99,283.26c-4.43-5.68-6.45-9.75-2.99-14.79c1.15-1.67,3.85-2.49,4.45-1.36
			C491.11,272.15,487.31,276.6,486.99,283.26z"/>
		<path class="st9" d="M351.25,241.07c-5.45-2.56-8.16-8.61-5.99-12.75c1-1.91,2.54-2.21,4.36-1.77c1.9,0.46,2.02,1.95,1.43,3.4
			C349.53,233.64,351.48,237.29,351.25,241.07z"/>
		<path class="st9" d="M331.5,242.54c-4.42-4.73-4.89-8.88-3.46-13.28c0.57-1.74,2.08-2.88,4.06-2.57c2.23,0.35,2.61,2.09,2.22,3.94
			C333.57,234.21,332.65,237.74,331.5,242.54z"/>
		<path class="st9" d="M409.34,229.84c2.51,0.57,4.32,1.71,3.41,4.2c-1.14,3.12-2.34,8.03-4.42,8.56c-2.73,0.69-3.39-3.72-3.47-6.59
			C404.76,232.77,406.08,230.44,409.34,229.84z"/>
		<path class="st9" d="M441.12,279.4c-4.64-3.8-5.55-8.18-4.48-13.01c0.49-2.21,2.22-3.52,4.61-2.89c2.33,0.62,2.22,2.56,1.4,4.19
			C440.84,271.28,442.25,275.22,441.12,279.4z"/>
		<path class="st9" d="M484.65,328.91c-4.38-3.6-5.95-7.55-3.22-12.09c0.78-1.3,2.87-1.6,3.81-0.59
			C489.27,320.56,482.89,324.45,484.65,328.91z"/>
		<path class="st9" d="M439.71,298.31c-0.6,2.66,0.18,6.19-3.36,6.25c-3.36,0.05-3.43-3.13-3.53-5.74c-0.12-2.95,0.93-5.28,4.13-5.3
			C440.56,293.51,439.37,296.56,439.71,298.31z"/>
		<path class="st9" d="M449.5,250.46c-3.36-3.72-5.62-7.11-3.15-11.7c0.88-1.63,3.31-2.76,4.3-1.42
			C453.74,241.55,451.91,245.77,449.5,250.46z"/>
		<path class="st9" d="M471.94,253.47c-2.57-4.1-3.76-8.12-0.14-11.84c1.07-1.1,3.23-1.44,3.86-0.05
			C477.81,246.3,473.31,249.36,471.94,253.47z"/>
		<path class="st9" d="M319.56,274.11c-4.73-4.52-6.55-9.35-3.07-12.42c4.67-4.14,6.52-1.51,4.64,4.06
			C320.4,267.89,320.26,270.23,319.56,274.11z"/>
		<path class="st9" d="M243.29,269.91c11.22,1.7,11.28,1.72,6.83,11.79c-1.21,2.74-1.73,5.49-1.83,8.44
			c-0.08,2.54,0.4,5.83-2.68,6.77c-3.46,1.05-2.93-3.79-5.41-4.58C236.35,284.19,236.36,276.57,243.29,269.91z"/>
		<path class="st9" d="M267.87,307.01c-4.95-8.52-9.55-15.46-9.17-24.74c0.19-4.6,2.79-7.45,4.91-10.74
			c1.55-2.41,4.02-1.73,6.22-0.56c1.97,1.05,5.33,1.87,4.1,4.62C269.65,285.17,272.23,296.08,267.87,307.01z"/>
		<path class="st9" d="M288.28,303.18c-5.4-6.19-7.58-12.18-6.59-19.19c0.93-6.6,5.81-9.04,11.51-10.07
			c2.72-0.49,4.67,1.13,3.66,4.2C294.2,286.22,291.35,294.26,288.28,303.18z"/>
		<path class="st9" d="M295.73,265.96c-3.31-1.93-6.69-3.07-7.21-7.22c-0.55-4.44,1.1-7.49,5.62-8.21c2.87-0.45,6.96-0.22,6.27,3.66
			C299.7,258.1,299.15,262.69,295.73,265.96z"/>
		<path class="st9" d="M317.3,243.31c-6.55-3.14-8.01-8.27-5.66-14.79c0.79-2.2,2.66-3.07,4.83-2.61c2.81,0.59,2.58,2.66,1.73,4.7
			c-1.73,4.16-0.69,8.52-0.99,12.78L317.3,243.31z"/>
		<path class="st9" d="M272.53,264.02c-3.55-2.38-4.44-5.17-4.76-8c-0.36-3.15-0.52-6.46,3.1-8.29c1.37-0.69,2.88-1.28,4.03-0.21
			c2.58,2.4-0.37,4.79-0.45,7.22C274.34,257.71,273.28,260.64,272.53,264.02z"/>
		<path class="st9" d="M286.05,235.4c-5.45-2.56-8.16-8.61-5.99-12.75c1-1.91,2.54-2.21,4.36-1.77c1.9,0.46,2.02,1.95,1.43,3.4
			C284.34,227.97,286.29,231.63,286.05,235.4z"/>
		<path class="st9" d="M266.3,236.87c-4.42-4.73-4.89-8.88-3.46-13.28c0.57-1.74,2.08-2.88,4.06-2.57c2.23,0.35,2.61,2.09,2.22,3.94
			C268.37,228.54,267.45,232.07,266.3,236.87z"/>
		<path class="st9" d="M371.43,220c-6.55-3.14-8.01-8.27-5.66-14.79c0.79-2.2,2.66-3.07,4.83-2.61c2.81,0.59,2.58,2.66,1.73,4.7
			c-1.73,4.16-0.69,8.52-0.99,12.78L371.43,220z"/>
		<path class="st9" d="M351.25,215.56c-5.45-2.56-8.16-8.61-5.99-12.75c1-1.91,2.54-2.21,4.36-1.77c1.9,0.46,2.02,1.95,1.43,3.4
			C349.53,208.13,351.48,211.78,351.25,215.56z"/>
		<path class="st9" d="M331.5,217.03c-4.42-4.73-4.89-8.88-3.46-13.28c0.57-1.74,2.08-2.88,4.06-2.57c2.23,0.35,2.61,2.09,2.22,3.94
			C333.57,208.7,332.65,212.23,331.5,217.03z"/>
		<path class="st9" d="M317.3,217.8c-6.55-3.14-8.01-8.27-5.66-14.79c0.79-2.2,2.66-3.07,4.83-2.61c2.81,0.59,2.58,2.66,1.73,4.7
			c-1.73,4.16-0.69,8.52-0.99,12.78L317.3,217.8z"/>
		<path class="st9" d="M286.05,209.89c-5.45-2.56-8.16-8.61-5.99-12.75c1-1.91,2.54-2.21,4.36-1.77c1.9,0.46,2.02,1.95,1.43,3.4
			C284.34,202.46,286.29,206.11,286.05,209.89z"/>
		<path class="st9" d="M266.3,211.36c-4.42-4.73-4.89-8.88-3.46-13.28c0.57-1.74,2.08-2.88,4.06-2.57c2.23,0.35,2.61,2.09,2.22,3.94
			C268.37,203.03,267.45,206.56,266.3,211.36z"/>
		<path class="st9" d="M254.36,268.44c-4.73-4.52-6.55-9.35-3.07-12.42c4.67-4.14,6.52-1.51,4.64,4.06
			C255.2,262.22,255.06,264.56,254.36,268.44z"/>
		<path class="st9" d="M503.27,286.59c-1.94-3.22-5.33-6.19-1.68-9.94c1.33-1.37,3.92-2.01,4.78-0.89
			C509.72,280.14,503.43,282.5,503.27,286.59z"/>
		<path class="st9" d="M495.93,253.47c-0.82,1.66,1.45,5.47-2.47,4.97c-3.59-0.46-2.68-4.66-3.69-7.17
			c-0.93-2.33,0.49-3.87,3.12-3.73C497.15,247.75,495.64,251.02,495.93,253.47z"/>
		<path class="st9" d="M490.84,304.19c-2.13-3.92-3.14-7.55,0.58-10.41c1.56-1.2,3.91-1.05,4.53,0.68
			C497.65,299.18,492.02,300.57,490.84,304.19z"/>
		<path class="st9" d="M509.05,306.55c-4.35-3.59-5-6.86-1.49-10.03c1.34-1.21,3.28-2.03,4.49-0.24
			C515.27,301.03,507.67,302.14,509.05,306.55z"/>
		<path class="st9" d="M371.36,245.59c0.22,0.1,0.44,0.21,0.67,0.31c-0.2-0.13-0.39-0.26-0.59-0.39
			C371.43,245.51,371.36,245.59,371.36,245.59z"/>
		<path class="st9" d="M236.56,217.39c1.84,0.12,4.65,0.7,5.98,3.1c1.28,2.32-1.49,3.49-2.74,4.89c-1.8,2.01-3.02,4.17-3.86,6.74
			c-0.8,2.45-1.91,5.57-5.05,5.24c-2.9-0.31-3.4-3.66-4.27-5.94C223.81,224.07,228.39,217.15,236.56,217.39z"/>
		<path class="st9" d="M238.75,248.75c2.06,0.52,4.93-1.02,5.8,2.28c0.33,1.25-9.07,14.89-9.92,14.49c-3.61-1.7-5.47-4.67-5.63-8.7
			C228.74,249.82,233.45,248.96,238.75,248.75z"/>
		<path class="st9" d="M215.48,282.26c3.19,0.08,6.54,0.92,4.66,3.68c-2.96,4.37-0.31,12.58-7.29,13.27
			c-3.28,0.33-6.91-4.25-6.52-9.02C206.81,284.26,211.55,283.26,215.48,282.26z"/>
	</g>
</g>
<g id="dot_x5F_2">
	<g>
		<path class="st10" d="M671.75,262.4c-2.41-1.5-6.14-0.52-8.41-3.29c-1.66-2.03-3.71-4.26-2.98-6.94c0.87-3.2,3.89-2.63,6.55-2.62
			c7.84,0.02,15.69-0.16,23.54-0.28c2.18-0.03,4.28,0.39,4.88,2.71c0.7,2.73-2.28,1.81-3.35,2.86
			C686.46,260.26,679.18,261.14,671.75,262.4z"/>
		<path class="st10" d="M377.18,175.32c-0.15-8.02,5.79-12.93,10.57-17.37c2.25-2.09,9.24,0,13.63,1.51
			c2.55,0.88,0.27,3.51-1.21,4.78c-6.15,5.29-12.37,10.51-18.65,15.65c-0.75,0.62-2.3,1.1-3.04,0.74
			C376.16,179.5,377.2,177.11,377.18,175.32z"/>
		<path class="st10" d="M351.41,174.09c-1-8.53,5.08-13.85,10.18-18.31c3.12-2.73,9.65-0.07,14.35,1.41
			c1.29,0.41-0.48,2.99-1.65,4.28c-5.67,6.26-13.76,9.73-19.1,16.42c-0.53,0.67-2.28,1.02-3.12,0.68
			C349.74,177.62,351.48,175.57,351.41,174.09z"/>
		<path class="st10" d="M308.49,275.58c11.22,1.7,11.28,1.72,6.83,11.79c-1.21,2.74-1.73,5.49-1.83,8.44
			c-0.08,2.54,0.4,5.83-2.68,6.77c-3.46,1.05-2.93-3.79-5.41-4.58C301.54,289.85,301.55,282.24,308.49,275.58z"/>
		<path class="st10" d="M667.96,285.17c-2.54-0.85-6.42-1.81-8-6.21c-1.75-4.89-1.44-8,5.13-6.71c5.91,1.16,11.9,1.95,17.85,2.92
			c2.04,0.33,2.89,1.85,3.11,3.64c0.3,2.36-2,1.28-2.97,2C679.01,283.87,674.23,284.82,667.96,285.17z"/>
		<path class="st10" d="M425.86,185.3c-0.87-6.15,1.2-10.71,5.47-14.37c4.69-4.02,10.77-2.99,14.02,2.22
			c1.29,2.06,1.92,3.45-1.1,4.52c-5.33,1.87-9.51,5.44-13.24,9.62c-1.15,1.29-2.47,2.58-4.51,1.91
			C423.61,188.24,426.27,186.23,425.86,185.3z"/>
		<path class="st10" d="M328.17,170.53c-0.34-6.45,3.51-11,7.85-12.94c3.52-1.58,8.94,0.06,13.15,1.41
			c2.79,0.89,1.04,3.35-0.67,4.58c-5.37,3.87-10.53,8.17-16.33,11.24C327.09,177.51,328.81,172.28,328.17,170.53z"/>
		<path class="st10" d="M466.63,192.54c-0.44-7.43,2.86-12.03,8.42-14.85c3.95-2.01,8.49-1.47,10.15,2.91
			c1.35,3.56,1.5,8.23-4.9,8.44c-3.54,0.12-5,3.73-7.61,5.49c-1.42,0.95-2.69,2.43-4.63,1.71
			C465.8,195.4,466.71,193.35,466.63,192.54z"/>
		<path class="st10" d="M490.8,197.73c0.29-5.98,3.57-10.31,9.2-10.78c4.29-0.36,8.94,4.49,6.72,7.86
			c-2.64,4.01-8.46,6.56-13.42,8.16C490.02,204.02,491.54,199.67,490.8,197.73z"/>
		<path class="st10" d="M448.69,185.23c0.98-4.99,3.05-9.24,8.45-9.65c4.4-0.34,8.44,3.51,6.93,6.88
			c-1.99,4.46-6.39,9.09-11.41,10.11C449.34,193.24,449.63,187.97,448.69,185.23z"/>
		<path class="st10" d="M532.72,204.46c-4.51,2.48-10.88,1.52-13.65,7.59c-1.02,2.23-2.28-0.63-2.71-1.32
			c-2.65-4.25-3.51-8.66,0.79-12.42c3.91-3.42,7.95-2.81,11.74,0.38C530.64,200.17,532.6,201.55,532.72,204.46z"/>
		<path class="st10" d="M413.98,166.41c2.05,0.46,5.04-1.3,6.08,1.69c0.84,2.4-1.87,3.34-3.14,4.79c-1.53,1.75-3.25,3.35-5.02,4.87
			c-2.33,2.01-3.97,5.71-7.8,4.53c-2.14-0.66-1.84-3.48-2.08-5.35c-0.48-3.74,0.94-6.92,4.36-8.82
			C408.71,166.86,411.18,165.88,413.98,166.41z"/>
		<path class="st10" d="M671.58,330.13c-7.91-0.22-8.4-6.05-8.99-11.59c-0.19-1.8-0.78-4.37,2.4-4.58
			c2.39-0.16,13.76,10.59,13.39,12.79C677.68,331.03,673.82,329.09,671.58,330.13z"/>
		<path class="st10" d="M304.7,308.56c0.88,3.3,5.78,7.3,2.05,9.54c-3.17,1.9-8.39,5.88-13.02,0.97
			C293.3,311.31,296.61,307.44,304.7,308.56z"/>
		<path class="st10" d="M674.95,293.34c-3.28,5.41,9.15,8.41,0.06,13.78c-3.47,2.05-6.63,1.2-7.96-2.05
			C664.56,299.01,668.91,296.3,674.95,293.34z"/>
		<path class="st10" d="M531.83,214.45c5.88-1,9.47-7.19,14.72-2.91c1.52,1.24,3.64,5.69,0.11,7.66
			C541.01,222.36,537.01,218.41,531.83,214.45z"/>
		<path class="st10" d="M402.78,215.95c-1.86,2.88-1.86,2.88-6.02-1.87c-0.22-2.31-0.39-4.64-0.69-6.94
			c-0.38-2.94,1.33-4.2,3.76-4.98c1.45-0.46,2.91-0.73,4,0.58c1.78,2.13,0.21,3.78-1.04,5.36
			C400.71,210.74,400.61,213.33,402.78,215.95z"/>
		<path class="st10" d="M609.64,274.57c0.15,6.53,8.93,8.76,2.9,15c-1.57,1.63-3.66,2.68-5.22,0.67
			C603.52,285.33,607.25,281.06,609.64,274.57z"/>
		<path class="st10" d="M483.75,235.01c-5.36,3.03-2.42-2.64-3.87-3.7c0.17-2.61,0.23-5.19,1.77-7.55c1.91-2.93,4.67-4.21,7.33-2.18
			c3.69,2.81-0.15,4.36-1.91,5.84C484.65,229.46,483.37,231.83,483.75,235.01z"/>
		<path class="st10" d="M520.05,287.6c-6.53-7.55-5.51-12.56,3.07-15.08C527.04,278.55,519.22,282.2,520.05,287.6z"/>
		<path class="st10" d="M500.93,241.77c-0.99-0.44-1.98-0.89-2.97-1.33c-0.75-3.89-3.09-7.81-0.18-11.68
			c1.24-1.65,2.93-3.1,5.23-2.09c2.93,1.29,1.4,3.27,0.49,5.03C501.86,234.87,501.23,238.28,500.93,241.77z"/>
		<path class="st10" d="M426.36,219.01c-1.23,1.08-2.53,3.12-3.67,3.04c-2.57-0.19-1.81-3.02-2.45-4.76
			c0.22-1.42,0.31-2.89,0.7-4.26c0.93-3.23,3.26-5.36,6.41-3.91c3.28,1.51-0.18,3.83-0.34,5.81
			C426.89,216.29,426.58,217.64,426.36,219.01z"/>
		<path class="st10" d="M586.86,267.72c-2.03-2.58-1.7-5.48-1.08-8.12c0.57-2.43,1.57-5.18,4.78-5.29c1.29-0.04,3.19,0.37,3.8,1.26
			c1.95,2.86-1.47,3.79-2.63,5.37C590.12,263.12,590.04,266.44,586.86,267.72z"/>
		<path class="st10" d="M544.63,279.25c-3.23,1.49-2.76,6.85-6.69,7.57c-1.69,0.31-3.58-2.97-3.31-5.3c0.37-3.2,1.62-6.25,5.72-6.37
			C542.73,275.09,544.16,276.22,544.63,279.25z"/>
		<path class="st10" d="M635.37,269.51c-4.83-2.51-6.6-6.01-4.5-10.72c0.73-1.64,2.53-3.21,4.17-1.92
			C639.91,260.66,634.48,265.22,635.37,269.51z"/>
		<path class="st10" d="M445.62,220.81c-1.03,2.24-2.06,4.48-3.28,7.15c-3.24-2.27-3.14-5.44-3.84-8.22
			c1.84-2.58,2.44-7.46,7.09-5.55C449.21,215.68,445.78,218.55,445.62,220.81z"/>
		<path class="st10" d="M527.59,263.1c-0.05-2.37-0.09-4.74-0.14-7.12c1.48-2.95,3.95-4.73,6.89-2.93c3,1.84,0.05,5.13-0.91,5.62
			C531.15,259.85,537.04,272.4,527.59,263.1z"/>
		<path class="st10" d="M467.28,225.96c-1.55,0.96-2.2,3.57-4.43,3.07c-2.07-0.47-1.33-2.65-1.62-4.15
			c0.34-0.77,0.69-1.54,1.02-2.32c1.59-3.75,4.82-5.89,7.87-3.16C473.3,222.24,467.98,223.57,467.28,225.96z"/>
		<path class="st10" d="M590.01,290.32c0-6.16,0-10.6,0-15.01C597,282.66,597,282.66,590.01,290.32z"/>
		<path class="st10" d="M519.07,323.11c0.1-2.87,1.88-4.91,3.45-7.05c7.32-1.12,4.5,3.37,3.72,6.73c-1.05,1.47-0.12,4.53-2.57,4.58
			C521.38,327.4,520.4,324.79,519.07,323.11z"/>
		<path class="st10" d="M522.5,307.47c-0.07-3.11-0.26-6.24,1.8-8.92c2.2-0.41,6.07-1.3,6,0.75c-0.13,3.66-1.97,7.53-4.02,10.73
			C525.51,311.24,523.63,308.67,522.5,307.47z"/>
		<path class="st10" d="M571.73,290.36c-3.04-5.04-3.33-8.95,0.27-12.51c1.61-1.59,5.13-1.49,5.4-0.05
			C578.31,282.68,573.87,285.52,571.73,290.36z"/>
		<path class="st10" d="M547.78,261c-3.04-5.76-3.99-9.47-0.05-12.76c1.62-1.35,4.12-0.9,4.55,0.63
			C553.48,253.17,549.83,255.87,547.78,261z"/>
		<path class="st10" d="M583.03,306.7c-2.11,1.07-4.02,2.79-6.68,2.12c-0.06-4.97,1.33-9.41,4.81-13.6
			C582.7,299.19,584.65,302.63,583.03,306.7z"/>
		<path class="st10" d="M636.25,306.75c-4.43-4.99-6.36-8.12-2.6-11.99c1.26-1.3,3.83-2.38,4.58-1.2
			C641.08,298.07,635.95,300.84,636.25,306.75z"/>
		<path class="st10" d="M522.44,242.81c-4.32-4.62-4.54-7.94-1.18-11.09c1.31-1.23,3.79-1.97,4.64-0.42
			C528.39,235.76,523.05,237.71,522.44,242.81z"/>
		<path class="st10" d="M550.29,304.52c-4.28-5.18-4.86-8.62-1.97-12c1.5-1.75,4.35-2.04,5.33-0.16
			C555.99,296.83,550.36,298.79,550.29,304.52z"/>
		<path class="st10" d="M570.75,268.15c-3.82-4.96-5.69-8.03-2.64-11.63c1.01-1.19,3.06-2.95,4.33-1.33
			C575.64,259.25,571.12,262.36,570.75,268.15z"/>
		<path class="st10" d="M558.84,283.93c-4.45-3.42-4.42-7.05-1.78-10.65c1.34-1.83,4.14-2.35,5.32-0.41
			C565.44,277.87,558.05,279.33,558.84,283.93z"/>
		<path class="st10" d="M621.39,270.63c-4.79-3.58-5.89-6.44-3.24-9.91c0.99-1.29,2.98-1.47,3.93-0.53
			C625.49,263.59,620.83,266.15,621.39,270.63z"/>
		<path class="st10" d="M657.46,333.76c-4.14,3.29-7.4,3.37-10.39-0.13c-0.79-0.92-1.37-2.36-0.26-2.96
			C650.91,328.46,653.58,331.71,657.46,333.76z"/>
		<path class="st10" d="M606.45,259.46c1.92,0.12,3.82,0.24,3.2,2.18c-0.74,2.34-0.95,5.47-3.63,6.44
			c-2.18,0.79-2.76-1.45-2.99-3.11C602.61,262,603.79,260,606.45,259.46z"/>
		<path class="st10" d="M516.12,252.78c-1.77,0.88-0.47,5.01-3.41,4.04c-3.42-1.13-2.57-4.7-2.66-7.52
			C512.75,249.29,517.28,246.07,516.12,252.78z"/>
		<path class="st10" d="M564.73,298.12c1.46,0.18,3.63,0.17,2.97,2.01c-0.79,2.21-0.68,5.61-3.76,6.07
			c-1.75,0.27-2.78-1.73-2.98-3.56C560.66,299.84,562.01,298.33,564.73,298.12z"/>
		<path class="st10" d="M504.71,327.23c-1.91-4.21-2.64-8.29,1.41-11.76c1.96-1.68,4.37-2.27,6.14-0.24
			c1.82,2.09,1.27,4.2-1.57,5.39c-3,1.26-3.79,4.08-4.53,6.89c0,0-0.76,0.04-0.76,0.04L504.71,327.23z"/>
		<path class="st10" d="M333.07,312.68c-4.95-8.52-9.55-15.46-9.17-24.74c0.19-4.6,2.79-7.45,4.91-10.74
			c1.55-2.41,4.02-1.73,6.22-0.56c1.97,1.05,5.33,1.87,4.1,4.62C334.84,290.84,337.43,301.75,333.07,312.68z"/>
		<path class="st10" d="M353.47,308.85c-5.4-6.19-7.58-12.18-6.59-19.19c0.93-6.6,5.81-9.04,11.51-10.07
			c2.72-0.49,4.67,1.13,3.66,4.2C359.4,291.89,356.54,299.93,353.47,308.85z"/>
		<path class="st10" d="M401.21,288.28c-0.69,3.19-1.23,6.62-2.21,9.91c-0.63,2.1-1.1,4.9-3.93,5.13c-3.06,0.25-4.56-2.28-5.64-4.6
			c-2.88-6.16,1.54-14.21,8.25-15.49C402.54,282.31,400.82,285.87,401.21,288.28z"/>
		<path class="st10" d="M378.63,285.29c-0.55,2.25-1.07,4.51-1.65,6.76c-0.68,2.62,1.11,6.28-2.62,7.58
			c-2.2,0.77-3.59-1.39-5.14-2.68c-3.05-2.54-3.94-5.84-2.71-9.42c1.35-3.94,4.85-5.72,8.61-6.7
			C379.34,279.73,379.37,282.24,378.63,285.29z"/>
		<path class="st10" d="M358.97,319.79c-0.46-7.26,3.01-9.28,8.02-9.3c2.29-0.01,5.7-1.26,5.99,2.94
			c0.19,2.76-7.25,14.62-8.73,14.02C360.25,325.83,359.32,322.15,358.97,319.79z"/>
		<path class="st10" d="M325.43,318.22c-4.75,3.06-2.42,11.38-8.39,12.84c-4.08,1-6.34-4.03-6.71-7.63
			c-0.55-5.42,3.28-7.74,8.3-7.73C320.92,315.71,323.97,314.23,325.43,318.22z"/>
		<path class="st10" d="M394.1,311.16c-2.33,3.75-0.68,10.77-6.61,12.46c-3.03,0.87-6.84-2.92-6.8-6.47
			c0.08-6.07,5.97-7.05,10.26-9.1C393.15,307.01,394.16,308.27,394.1,311.16z"/>
		<path class="st10" d="M360.92,271.63c-3.31-1.93-6.69-3.07-7.21-7.22c-0.55-4.44,1.1-7.49,5.62-8.21
			c2.87-0.45,6.96-0.22,6.27,3.66C364.9,263.77,364.34,268.36,360.92,271.63z"/>
		<path class="st10" d="M418.75,313.09c-6.25,1.83-3.63,12.59-12.33,9.79c-3.53-1.13-4.98-5.69-2.79-8.81
			C407.3,308.82,412.5,310.13,418.75,313.09z"/>
		<path class="st10" d="M463.35,288.34c-4.67-6.71-7.27-12.05-4.48-18.63c0.85-2.01,2.29-3.46,4.7-2.81
			c2.72,0.73,2.17,2.62,1.8,4.81C464.53,276.65,464.13,281.67,463.35,288.34z"/>
		<path class="st10" d="M351.07,318.21c-3.96,3.06,0.72,12.15-7.81,11.34c-2.8-0.26-5.9-2.2-5.13-5.89
			C339.62,316.43,345.41,317.66,351.07,318.21z"/>
		<path class="st10" d="M383.95,282.17c-5.87-6.26-6.29-12.21-5.37-18.36c0.35-2.36,1.68-4.61,4.7-3.88
			c2.72,0.66,2.47,3.15,1.96,5.02C383.87,270.06,383.74,275.26,383.95,282.17z"/>
		<path class="st10" d="M388.75,242.03c-4.24-5.33-5.6-10.4-2.87-15.9c1.04-2.09,3.31-3.71,5.75-2.71c2.85,1.16,2.69,3.54,0.78,5.61
			C389.2,232.52,392.09,237.58,388.75,242.03z"/>
		<path class="st10" d="M423.21,278.72c-5.64-3.97-7.18-8.54-5.64-14.03c0.69-2.46,2.81-3.75,5.48-3.12
			c3.12,0.74,1.71,2.79,1.39,4.78C423.83,270.19,423.64,274.1,423.21,278.72z"/>
		<path class="st10" d="M371.43,245.51c-6.55-3.14-8.01-8.27-5.66-14.79c0.79-2.2,2.66-3.07,4.83-2.61c2.81,0.59,2.58,2.66,1.73,4.7
			c-1.73,4.16-0.69,8.52-0.99,12.78L371.43,245.51z"/>
		<path class="st10" d="M402.41,277.67c-4.87-4.71-5.49-10.22-4.46-16.1c0.38-2.15,1.87-3.81,4.25-3.56
			c2.91,0.31,2.56,2.76,2.32,4.72C403.94,267.57,403.17,272.38,402.41,277.67z"/>
		<path class="st10" d="M337.73,269.69c-3.55-2.38-4.44-5.17-4.76-8c-0.36-3.15-0.52-6.46,3.1-8.29c1.37-0.69,2.88-1.28,4.03-0.21
			c2.58,2.4-0.37,4.79-0.45,7.22C339.54,263.38,338.47,266.31,337.73,269.69z"/>
		<path class="st10" d="M477.96,304.22c-3.25-0.05-3.67-2.05-4.62-3.32c-2.52-3.37-2.37-6.96-0.33-10.52
			c0.74-1.29,1.83-2.61,3.34-1.37c2.89,2.38,1.72,5.85,1.87,8.91C478.33,299.9,478.07,301.89,477.96,304.22z"/>
		<path class="st10" d="M466.19,331.54c-3.59-4.34-5.95-8.11-3.04-12.95c1.26-2.1,3.18-3.62,5.77-2.07
			c2.16,1.29,2.42,3.25,0.63,5.05C467.04,324.09,468.44,327.72,466.19,331.54z"/>
		<path class="st10" d="M452.95,309.03c-4.17-4.05-6.6-7.12-5.75-11.64c0.55-2.93,2.21-4.87,5.32-4.4c3.91,0.59,1.85,3.21,1.54,5.3
			C453.61,301.35,453.41,304.45,452.95,309.03z"/>
		<path class="st10" d="M429.24,251.04c-2.39-4.38-1.78-7.78-1.8-11.09c-0.03-3.36,1.76-5.41,4.76-6.36c0.94-0.3,2.76-0.1,3.12,0.5
			c1.69,2.81-1.2,4.59-2.01,6.85C432.26,243.88,430.99,246.73,429.24,251.04z"/>
		<path class="st10" d="M486.99,283.26c-4.43-5.68-6.45-9.75-2.99-14.79c1.15-1.67,3.85-2.49,4.45-1.36
			C491.11,272.15,487.31,276.6,486.99,283.26z"/>
		<path class="st10" d="M351.25,241.07c-5.45-2.56-8.16-8.61-5.99-12.75c1-1.91,2.54-2.21,4.36-1.77c1.9,0.46,2.02,1.95,1.43,3.4
			C349.53,233.64,351.48,237.29,351.25,241.07z"/>
		<path class="st10" d="M331.5,242.54c-4.42-4.73-4.89-8.88-3.46-13.28c0.57-1.74,2.08-2.88,4.06-2.57
			c2.23,0.35,2.61,2.09,2.22,3.94C333.57,234.21,332.65,237.74,331.5,242.54z"/>
		<path class="st10" d="M409.34,229.84c2.51,0.57,4.32,1.71,3.41,4.2c-1.14,3.12-2.34,8.03-4.42,8.56
			c-2.73,0.69-3.39-3.72-3.47-6.59C404.76,232.77,406.08,230.44,409.34,229.84z"/>
		<path class="st10" d="M441.12,279.4c-4.64-3.8-5.55-8.18-4.48-13.01c0.49-2.21,2.22-3.52,4.61-2.89c2.33,0.62,2.22,2.56,1.4,4.19
			C440.84,271.28,442.25,275.22,441.12,279.4z"/>
		<path class="st10" d="M484.65,328.91c-4.38-3.6-5.95-7.55-3.22-12.09c0.78-1.3,2.87-1.6,3.81-0.59
			C489.27,320.56,482.89,324.45,484.65,328.91z"/>
		<path class="st10" d="M439.71,298.31c-0.6,2.66,0.18,6.19-3.36,6.25c-3.36,0.05-3.43-3.13-3.53-5.74
			c-0.12-2.95,0.93-5.28,4.13-5.3C440.56,293.51,439.37,296.56,439.71,298.31z"/>
		<path class="st10" d="M449.5,250.46c-3.36-3.72-5.62-7.11-3.15-11.7c0.88-1.63,3.31-2.76,4.3-1.42
			C453.74,241.55,451.91,245.77,449.5,250.46z"/>
		<path class="st10" d="M471.94,253.47c-2.57-4.1-3.76-8.12-0.14-11.84c1.07-1.1,3.23-1.44,3.86-0.05
			C477.81,246.3,473.31,249.36,471.94,253.47z"/>
		<path class="st10" d="M319.56,274.11c-4.73-4.52-6.55-9.35-3.07-12.42c4.67-4.14,6.52-1.51,4.64,4.06
			C320.4,267.89,320.26,270.23,319.56,274.11z"/>
		<path class="st10" d="M243.29,269.91c11.22,1.7,11.28,1.72,6.83,11.79c-1.21,2.74-1.73,5.49-1.83,8.44
			c-0.08,2.54,0.4,5.83-2.68,6.77c-3.46,1.05-2.93-3.79-5.41-4.58C236.35,284.19,236.36,276.57,243.29,269.91z"/>
		<path class="st10" d="M267.87,307.01c-4.95-8.52-9.55-15.46-9.17-24.74c0.19-4.6,2.79-7.45,4.91-10.74
			c1.55-2.41,4.02-1.73,6.22-0.56c1.97,1.05,5.33,1.87,4.1,4.62C269.65,285.17,272.23,296.08,267.87,307.01z"/>
		<path class="st10" d="M288.28,303.18c-5.4-6.19-7.58-12.18-6.59-19.19c0.93-6.6,5.81-9.04,11.51-10.07
			c2.72-0.49,4.67,1.13,3.66,4.2C294.2,286.22,291.35,294.26,288.28,303.18z"/>
		<path class="st10" d="M295.73,265.96c-3.31-1.93-6.69-3.07-7.21-7.22c-0.55-4.44,1.1-7.49,5.62-8.21
			c2.87-0.45,6.96-0.22,6.27,3.66C299.7,258.1,299.15,262.69,295.73,265.96z"/>
		<path class="st10" d="M317.3,243.31c-6.55-3.14-8.01-8.27-5.66-14.79c0.79-2.2,2.66-3.07,4.83-2.61c2.81,0.59,2.58,2.66,1.73,4.7
			c-1.73,4.16-0.69,8.52-0.99,12.78L317.3,243.31z"/>
		<path class="st10" d="M272.53,264.02c-3.55-2.38-4.44-5.17-4.76-8c-0.36-3.15-0.52-6.46,3.1-8.29c1.37-0.69,2.88-1.28,4.03-0.21
			c2.58,2.4-0.37,4.79-0.45,7.22C274.34,257.71,273.28,260.64,272.53,264.02z"/>
		<path class="st10" d="M286.05,235.4c-5.45-2.56-8.16-8.61-5.99-12.75c1-1.91,2.54-2.21,4.36-1.77c1.9,0.46,2.02,1.95,1.43,3.4
			C284.34,227.97,286.29,231.63,286.05,235.4z"/>
		<path class="st10" d="M266.3,236.87c-4.42-4.73-4.89-8.88-3.46-13.28c0.57-1.74,2.08-2.88,4.06-2.57
			c2.23,0.35,2.61,2.09,2.22,3.94C268.37,228.54,267.45,232.07,266.3,236.87z"/>
		<path class="st10" d="M371.43,220c-6.55-3.14-8.01-8.27-5.66-14.79c0.79-2.2,2.66-3.07,4.83-2.61c2.81,0.59,2.58,2.66,1.73,4.7
			c-1.73,4.16-0.69,8.52-0.99,12.78L371.43,220z"/>
		<path class="st10" d="M351.25,215.56c-5.45-2.56-8.16-8.61-5.99-12.75c1-1.91,2.54-2.21,4.36-1.77c1.9,0.46,2.02,1.95,1.43,3.4
			C349.53,208.13,351.48,211.78,351.25,215.56z"/>
		<path class="st10" d="M331.5,217.03c-4.42-4.73-4.89-8.88-3.46-13.28c0.57-1.74,2.08-2.88,4.06-2.57
			c2.23,0.35,2.61,2.09,2.22,3.94C333.57,208.7,332.65,212.23,331.5,217.03z"/>
		<path class="st10" d="M317.3,217.8c-6.55-3.14-8.01-8.27-5.66-14.79c0.79-2.2,2.66-3.07,4.83-2.61c2.81,0.59,2.58,2.66,1.73,4.7
			c-1.73,4.16-0.69,8.52-0.99,12.78L317.3,217.8z"/>
		<path class="st10" d="M286.05,209.89c-5.45-2.56-8.16-8.61-5.99-12.75c1-1.91,2.54-2.21,4.36-1.77c1.9,0.46,2.02,1.95,1.43,3.4
			C284.34,202.46,286.29,206.11,286.05,209.89z"/>
		<path class="st10" d="M266.3,211.36c-4.42-4.73-4.89-8.88-3.46-13.28c0.57-1.74,2.08-2.88,4.06-2.57
			c2.23,0.35,2.61,2.09,2.22,3.94C268.37,203.03,267.45,206.56,266.3,211.36z"/>
		<path class="st10" d="M254.36,268.44c-4.73-4.52-6.55-9.35-3.07-12.42c4.67-4.14,6.52-1.51,4.64,4.06
			C255.2,262.22,255.06,264.56,254.36,268.44z"/>
		<path class="st10" d="M503.27,286.59c-1.94-3.22-5.33-6.19-1.68-9.94c1.33-1.37,3.92-2.01,4.78-0.89
			C509.72,280.14,503.43,282.5,503.27,286.59z"/>
		<path class="st10" d="M495.93,253.47c-0.82,1.66,1.45,5.47-2.47,4.97c-3.59-0.46-2.68-4.66-3.69-7.17
			c-0.93-2.33,0.49-3.87,3.12-3.73C497.15,247.75,495.64,251.02,495.93,253.47z"/>
		<path class="st10" d="M490.84,304.19c-2.13-3.92-3.14-7.55,0.58-10.41c1.56-1.2,3.91-1.05,4.53,0.68
			C497.65,299.18,492.02,300.57,490.84,304.19z"/>
		<path class="st10" d="M509.05,306.55c-4.35-3.59-5-6.86-1.49-10.03c1.34-1.21,3.28-2.03,4.49-0.24
			C515.27,301.03,507.67,302.14,509.05,306.55z"/>
		<path class="st10" d="M371.36,245.59c0.22,0.1,0.44,0.21,0.67,0.31c-0.2-0.13-0.39-0.26-0.59-0.39
			C371.43,245.51,371.36,245.59,371.36,245.59z"/>
		<path class="st10" d="M236.56,217.39c1.84,0.12,4.65,0.7,5.98,3.1c1.28,2.32-1.49,3.49-2.74,4.89c-1.8,2.01-3.02,4.17-3.86,6.74
			c-0.8,2.45-1.91,5.57-5.05,5.24c-2.9-0.31-3.4-3.66-4.27-5.94C223.81,224.07,228.39,217.15,236.56,217.39z"/>
		<path class="st10" d="M238.75,248.75c2.06,0.52,4.93-1.02,5.8,2.28c0.33,1.25-9.07,14.89-9.92,14.49c-3.61-1.7-5.47-4.67-5.63-8.7
			C228.74,249.82,233.45,248.96,238.75,248.75z"/>
		<path class="st10" d="M215.48,282.26c3.19,0.08,6.54,0.92,4.66,3.68c-2.96,4.37-0.31,12.58-7.29,13.27
			c-3.28,0.33-6.91-4.25-6.52-9.02C206.81,284.26,211.55,283.26,215.48,282.26z"/>
	</g>
</g>
<g id="mune_x5F_0">
	<path class="st0" d="M316.6,263.13c0.14-0.57,0.26-1.15,0.37-1.73c1.54-8.09-6.48-5.69-12.81-4.03c-6.75,1.77-13.01,5.1-19.09,8.45
		c-15.52,8.56-30.71,17.73-45.52,27.47c-7.56,4.97-15.27,9.92-22.46,15.42c-2.13,1.63-4.18,3.9-6.51,5.2
		c-2.55,1.42-6.08,0.82-7.73,3.8c-0.62,1.12-0.44,2.49-0.17,3.74c0.82,3.83,2.28,7.52,4.31,10.87c2.32,3.83,3.95,6.49,7.54,9.41
		c3.35,2.74,7.04,5.04,10.79,7.18c2.66,1.52,5.38,2.93,8.16,4.21c12.75,5.9,24.63,12.44,38.56,15.38
		c5.5-27.02,15.72-53.08,30.05-76.64C307.63,282.77,314.11,273.66,316.6,263.13z"/>
</g>
<g id="mune_x5F_1_00000147909838461193982590000003834006999095460998_">
	<path class="st11" d="M316.6,263.13c0.14-0.57,0.26-1.15,0.37-1.73c1.54-8.09-6.48-5.69-12.81-4.03
		c-6.75,1.77-13.01,5.1-19.09,8.45c-15.52,8.56-30.71,17.73-45.52,27.47c-7.56,4.97-15.27,9.92-22.46,15.42
		c-2.13,1.63-4.18,3.9-6.51,5.2c-2.55,1.42-6.08,0.82-7.73,3.8c-0.62,1.12-0.44,2.49-0.17,3.74c0.82,3.83,2.28,7.52,4.31,10.87
		c2.32,3.83,3.95,6.49,7.54,9.41c3.35,2.74,7.04,5.04,10.79,7.18c2.66,1.52,5.38,2.93,8.16,4.21c12.75,5.9,24.63,12.44,38.56,15.38
		c5.5-27.02,15.72-53.08,30.05-76.64C307.63,282.77,314.11,273.66,316.6,263.13z"/>
</g>
<g id="mune_x5F_2">
	<path class="st2" d="M316.6,263.13c0.14-0.57,0.26-1.15,0.37-1.73c1.54-8.09-6.48-5.69-12.81-4.03c-6.75,1.77-13.01,5.1-19.09,8.45
		c-15.52,8.56-30.71,17.73-45.52,27.47c-7.56,4.97-15.27,9.92-22.46,15.42c-2.13,1.63-4.18,3.9-6.51,5.2
		c-2.55,1.42-6.08,0.82-7.73,3.8c-0.62,1.12-0.44,2.49-0.17,3.74c0.82,3.83,2.28,7.52,4.31,10.87c2.32,3.83,3.95,6.49,7.54,9.41
		c3.35,2.74,7.04,5.04,10.79,7.18c2.66,1.52,5.38,2.93,8.16,4.21c12.75,5.9,24.63,12.44,38.56,15.38
		c5.5-27.02,15.72-53.08,30.05-76.64C307.63,282.77,314.11,273.66,316.6,263.13z"/>
</g>
</svg>
